<?xml version="1.0" encoding="utf-8"?>
<!-- Generator: Adobe Illustrator 25.2.0, SVG Export Plug-In . SVG Version: 6.00 Build 0)  -->
<svg version="1.1" id="Layer_1" xmlns="http://www.w3.org/2000/svg" xmlns:xlink="http://www.w3.org/1999/xlink" x="0px" y="0px"
	 viewBox="0 0 975.1 318.4" style="enable-background:new 0 0 975.1 318.4;" xml:space="preserve">
<style type="text/css">
	.st0{clip-path:url(#SVGID_2_);}
	.st1{fill:#FFFFFF;}
	.st2{fill:#2D2E5F;}
</style>
<g>
	<g>
		<defs>
			<path id="SVGID_1_" d="M23.1,159.3c0,75.1,207.2,136,462.8,136s462.8-60.9,462.8-136s-207.2-136-462.8-136S23.1,84.2,23.1,159.3"
				/>
		</defs>
		<clipPath id="SVGID_2_">
			<use xlink:href="#SVGID_1_"  style="overflow:visible;"/>
		</clipPath>
		<g class="st0">
			<g>
				<path class="st1" d="M950.1,133.4c-14.2-16.2-30.9-29.1-49.9-39.1c-37.8-19.9-78.1-33.2-119.6-42.2c-36.6-8-73.6-14.3-110.7-20
					c-23.2-3.6-46.9-4.8-70.3-7.3c-3.4-0.4-6.7-2-10.1-3.1c120.2,0,240.4,0,360.6,0C950.1,59,950.1,96.2,950.1,133.4z"/>
				<path class="st1" d="M379.4,21.8c-1.8,1-3.5,2.7-5.4,2.8c-57.2,4.1-114,11.5-170,24c-45.3,10.1-89.8,22.9-131.3,44.3
					c-16.8,8.7-32.8,18.5-46,32.3c-1.2,1.2-3.2,1.5-4.9,2.2c0-35.2,0-70.3,0-105.7C141,21.8,260.2,21.8,379.4,21.8z"/>
				<path class="st1" d="M604.4,297.2c1.8-1,3.5-2.7,5.3-2.8c57-4,113.5-11.6,169.2-24.3c46.8-10.7,92.7-24,134.1-49.2
					c14.5-8.9,27.4-19.6,37.1-33.8c0,36.7,0,73.4,0,110.1C834.8,297.2,719.6,297.2,604.4,297.2z"/>
				<path class="st1" d="M21.8,191.5c35.1,38.1,81.8,54.5,129.6,68.3c68.4,19.7,138.6,29.4,209.5,34.7c2.7,0.2,5.4,1.8,8,2.7
					c-115.7,0-231.5,0-347.2,0C21.8,261.9,21.8,226.7,21.8,191.5z"/>
				<path class="st1" d="M462,287c-67.5-0.3-155.7-6.7-242.7-25.6c-42.8-9.3-84.7-21.4-123.3-42.9c-14-7.8-26.9-16.9-37-29.5
					c-16.5-20.5-16.2-40.7,0.9-60.6c12.9-14.9,29.5-24.9,46.9-33.6c40.3-20.1,83.3-32.2,127.1-41.2
					c125.2-25.7,251.7-29.3,378.7-18.2C680,41.3,746.5,52.3,811,73.6c31,10.2,61.2,22.3,86.9,43c33.4,26.8,33.6,57,0.8,84.4
					c-23.4,19.6-51.1,31.2-79.6,41c-54.5,18.7-110.9,28.7-167.9,35.5C595.5,284.3,539.5,287.1,462,287z M483.2,283.7
					c80.6-0.2,160.7-5.6,239.9-21c44.9-8.8,89.1-20.3,130.3-40.9c17.6-8.8,34.2-19.3,46.5-35.2c14.7-18.9,14.2-38.7-1.3-56.9
					c-11.5-13.5-26.1-22.8-41.6-30.8c-50.7-26-105.5-38.8-161.1-48.6c-62.7-11-126-15.9-189.7-16.7c-95.1-1.1-189.5,5.4-282.4,26.9
					c-38.8,9-77,19.9-112,39.4c-13.9,7.7-27.3,17.5-38.6,28.6c-18.4,18.1-18.2,40.1-1.7,60.1c10.9,13.3,24.9,22.7,39.9,30.6
					c36.1,19.1,74.8,30.4,114.4,39.1C310.6,277,396.6,283.3,483.2,283.7z"/>
				<path class="st1" d="M383.1,103.2c-2.1,2.7-4.1,5.4-6.3,8c-25.9,30.7-51.6,61.5-77.8,92c-2.2,2.6-6.4,4.2-9.9,4.6
					c-6.4,0.7-12.9-0.1-19.3,0.3c-5.2,0.4-6.9-2-7.8-6.6c-6-30.6-12.3-61.2-18.4-91.8c-1.4-6.9,0.2-8.8,7.3-9.2
					c20.7-0.9,20.7-0.9,24.4,18.9c3.1,16.3,6.1,32.6,9.4,48.9c0.5,2.5,2.2,5.9,4.3,6.7c1.5,0.6,5-1.8,6.6-3.7
					c19.1-22.5,38.1-45.1,57.1-67.6c1.1-1.3,2.6-2.9,4-3c8.5-0.3,17-0.1,25.6-0.1C382.6,101.5,382.8,102.3,383.1,103.2z"/>
				<path class="st1" d="M444,208.7c-11.4-4.2-23.1,4.5-32-7.4c-13.7,7.9-28.9,11.2-44.9,5.5c-14.6-5.2-18.1-25.5-5.9-35
					c4.8-3.7,10.4-7.9,16.1-8.8c14.6-2.3,29.4-2.8,44.1-4.4c2.6-0.3,7.1-2,7.2-3.4c0.3-2.7-1.1-7.2-3.2-8.4c-8-4.4-17.1-3.9-24,1.2
					c-6.7,5-13.1,4.6-20.2,3.8c-3.9-0.4-7.8-0.7-13.4-1.1c2.7-3.5,4.2-5.9,6.2-7.8c16.7-15.7,56-20.6,76.4-9.6
					c7.1,3.8,10,11.9,6.8,20.4c-2.9,7.6-6.2,15.1-9.5,22.6C443.5,185.9,440.4,195.7,444,208.7z M421.1,170.9
					c-11.6,2.5-22.2,4.3-32.6,7.2c-2.4,0.7-3.8,5-5.6,7.7c2.2,1.1,4.2,2.7,6.5,3.3c3.3,0.9,6.8,1.1,10.2,1.5
					C410.2,191.9,419.5,184.1,421.1,170.9z"/>
				<path class="st1" d="M570.5,176.2c-0.5,6.8,1.1,10.6,7.4,11.7c6.3,1.1,12.4,3.8,18.6,3.8c4.7,0,10.5-1.8,13.7-4.9
					c4.3-4.3,8.2-5.9,13.7-4.1c4.5,1.5,8.9,3.2,13.3,4.8c-3.4,3.8-6.2,8.3-10.2,11.3c-17.4,12.9-51.1,14-69.4,2.7
					c-13-8.1-18-23.8-12.5-38.4c6.3-16.8,20.2-25.8,35.7-31.5c14.8-5.4,30.6-5.2,46.1-0.7c20,5.8,21.5,28.9,16.9,42.4
					c-0.5,1.5-4.3,2.8-6.6,2.8c-19.1,0.2-38.2,0.1-57.3,0.1C577,176.2,574,176.2,570.5,176.2z M618.7,161.5
					c1.6-8.5-1.2-13.6-9.7-15.3c-11.2-2.3-21.8-0.9-30,8.1c-1.8,2-3,4.4-4.9,7.2C589.7,161.5,603.9,161.5,618.7,161.5z"/>
				<path class="st1" d="M764.9,155c-8.5,0.6-15.9,1.3-23.3,1.5c-1.6,0-3.9-1.2-4.6-2.5c-4.1-7.6-11-8.8-18.5-8.2
					c-15,1.3-28.8,13.8-31.3,28.7c-1.1,6.2,0,11.4,7.5,12.8c6,1.2,12.1,4.1,18,3.6c4.2-0.3,9-4.1,11.7-7.8c3.9-5.2,7.9-6.7,13.9-5.4
					c3.6,0.8,7.4,1,11.1,1.4c6.1,0.7,6.4,3.4,3,7.8c-11.3,14.5-26.7,21.4-44.5,22.2c-9.2,0.4-19.1-0.5-27.6-3.8
					c-21.9-8.5-28.6-34.5-13.2-52.2c21.2-24.4,53.8-33.4,84.9-19.8C761.5,137.6,763,145.5,764.9,155z"/>
				<path class="st1" d="M544.6,129.7c-0.8,3.1-1.3,4.5-1.6,5.9c-1.4,8.5-6,12.4-14.8,10.7c-5.6-1.1-8.4,1.5-10.1,6.9
					c-3,9.4-6.8,18.6-10.1,27.9c-0.9,2.5-1.4,5-2.2,8c6.7,0.6,12.4,1.2,19.1,1.9c-1.7,5.4-2.8,9.9-4.5,14.2
					c-0.6,1.5-2.8,3.3-4.2,3.3c-8.8,0.2-18,1.2-26.5-0.5c-11.9-2.4-16-11.9-11.8-23.3c4.5-12.2,9.1-24.5,14-37.4
					c-4.9-0.3-9-0.6-13.1-0.9c1.9-17.6,5.8-19.7,17.7-15.1c0.4-0.3,1.1-0.5,1.1-0.9c1.9-10.3,9.7-13.9,18.4-16.9
					c6.2-2.1,12.1-5.2,20.6-8.9c-3.4,9.2-6.1,16.6-9.2,25C533.2,129.7,538.4,129.7,544.6,129.7z"/>
				<g>
					<path class="st2" d="M900.1,94.4C862.3,74.5,822,61.2,780.5,52.2c-36.6-8-73.6-14.3-110.7-20c-23.2-3.6-46.9-4.8-70.3-7.3
						c-3.4-0.4-6.7-2-10.1-3.1c-70,0-140.1,0-210.1,0c-1.8,1-3.5,2.7-5.4,2.8c-57.2,4.1-114,11.5-170,24
						c-45.3,10.1-89.8,22.9-131.3,44.3c-16.8,8.7-32.8,18.5-46,32.3c-1.2,1.2-3.2,1.5-4.9,2.2c0,21.3,0,42.7,0,64
						c35.1,38.1,81.8,54.5,129.6,68.3c68.4,19.7,138.6,29.4,209.5,34.7c2.7,0.2,5.4,1.8,8,2.7c78.5,0,157,0,235.4,0
						c1.8-1,3.5-2.7,5.3-2.8c57-4,113.5-11.6,169.2-24.3c46.8-10.7,92.7-24,134.1-49.2c14.5-8.9,27.4-19.6,37.1-33.8
						c0-17.9,0-35.7,0-53.6C935.9,117.2,919.2,104.4,900.1,94.4z M898.7,201.1c-23.4,19.6-51.1,31.2-79.6,41
						c-54.5,18.7-110.9,28.7-167.9,35.5c-55.7,6.7-111.7,9.5-189.2,9.4c-67.5-0.3-155.7-6.7-242.7-25.6
						c-42.8-9.3-84.7-21.4-123.3-42.9c-14-7.8-26.9-16.9-37-29.5c-16.5-20.5-16.2-40.7,0.9-60.6c12.9-14.9,29.5-24.9,46.9-33.6
						c40.3-20.1,83.3-32.2,127.1-41.2c125.2-25.7,251.7-29.3,378.7-18.2C680,41.3,746.5,52.3,811,73.6c31,10.2,61.2,22.3,86.9,43
						C931.4,143.5,931.6,173.6,898.7,201.1z"/>
					<path class="st2" d="M857,99c-50.7-26-105.5-38.8-161.1-48.6c-62.7-11-126-15.9-189.7-16.7c-95.1-1.1-189.5,5.4-282.4,26.9
						c-38.8,9-77,19.9-112,39.4c-13.9,7.7-27.3,17.5-38.6,28.6c-18.4,18.1-18.2,40.1-1.7,60.1c10.9,13.3,24.9,22.7,39.9,30.6
						c36.1,19.1,74.8,30.4,114.4,39.1c84.8,18.5,170.8,24.8,257.4,25.3c80.6-0.2,160.7-5.6,239.9-21c44.9-8.8,89.1-20.3,130.3-40.9
						c17.6-8.8,34.2-19.3,46.5-35.2c14.7-18.9,14.2-38.7-1.3-56.9C887.1,116.3,872.5,106.9,857,99z M289.2,207.8
						c-6.4,0.7-12.9-0.1-19.3,0.3c-5.2,0.4-6.9-2-7.8-6.6c-6-30.6-12.3-61.2-18.4-91.8c-1.4-6.9,0.2-8.8,7.3-9.2
						c20.7-0.9,20.7-0.9,24.4,18.9c3.1,16.3,6.1,32.6,9.4,48.9c0.5,2.5,2.2,5.9,4.3,6.7c1.5,0.6,5-1.8,6.6-3.7
						c19.1-22.5,38.1-45.1,57.1-67.6c1.1-1.3,2.6-2.9,4-3c8.5-0.3,17-0.1,25.6-0.1c0.3,0.8,0.6,1.7,0.8,2.5c-2.1,2.7-4.1,5.4-6.3,8
						c-25.9,30.7-51.6,61.5-77.8,92C296.9,205.7,292.6,207.4,289.2,207.8z M457.3,153.7c-2.9,7.6-6.2,15.1-9.5,22.6
						c-4.3,9.6-7.5,19.4-3.9,32.4c-11.4-4.2-23.1,4.5-32-7.4c-13.7,7.9-28.9,11.2-44.9,5.5c-14.6-5.2-18.1-25.5-5.9-35
						c4.8-3.7,10.4-7.9,16.1-8.8c14.6-2.3,29.4-2.8,44.1-4.4c2.6-0.3,7.1-2,7.2-3.4c0.3-2.7-1.1-7.2-3.2-8.4c-8-4.4-17.1-3.9-24,1.2
						c-6.7,5-13.1,4.6-20.2,3.8c-3.9-0.4-7.8-0.7-13.4-1.1c2.7-3.5,4.2-5.9,6.2-7.8c16.7-15.7,56-20.6,76.4-9.6
						C457.7,137.2,460.6,145.3,457.3,153.7z M528.2,146.3c-5.6-1.1-8.4,1.5-10.1,6.9c-3,9.4-6.8,18.6-10.1,27.9
						c-0.9,2.5-1.4,5-2.2,8c6.7,0.6,12.4,1.2,19.1,1.9c-1.7,5.4-2.8,9.9-4.5,14.2c-0.6,1.5-2.8,3.3-4.2,3.3
						c-8.8,0.2-18,1.2-26.5-0.5c-11.9-2.4-16-11.9-11.8-23.3c4.5-12.2,9.1-24.5,14-37.4c-4.9-0.3-9-0.6-13.1-0.9
						c1.9-17.6,5.8-19.7,17.7-15.1c0.4-0.3,1.1-0.5,1.1-0.9c1.9-10.3,9.7-13.9,18.4-16.9c6.2-2.1,12.1-5.2,20.6-8.9
						c-3.4,9.2-6.1,16.6-9.2,25c6,0,11.2,0,17.4,0c-0.8,3.1-1.3,4.5-1.6,5.9C541.6,144.2,537,148,528.2,146.3z M643.8,173.3
						c-0.5,1.5-4.3,2.8-6.6,2.8c-19.1,0.2-38.2,0.1-57.3,0.1c-2.9,0-5.9,0-9.4,0c-0.5,6.8,1.1,10.6,7.4,11.7
						c6.3,1.1,12.4,3.8,18.6,3.8c4.7,0,10.5-1.8,13.7-4.9c4.3-4.3,8.2-5.9,13.7-4.1c4.5,1.5,8.9,3.2,13.3,4.8
						c-3.4,3.8-6.2,8.3-10.2,11.3c-17.4,12.9-51.1,14-69.4,2.7c-13-8.1-18-23.8-12.5-38.4c6.3-16.8,20.2-25.8,35.7-31.5
						c14.8-5.4,30.6-5.2,46.1-0.7C646.9,136.7,648.4,159.8,643.8,173.3z M694.6,187.3c6,1.2,12.1,4.1,18,3.6c4.2-0.3,9-4.1,11.7-7.8
						c3.9-5.2,7.9-6.7,13.9-5.4c3.6,0.8,7.4,1,11.1,1.4c6.1,0.7,6.4,3.4,3,7.8c-11.3,14.5-26.7,21.4-44.5,22.2
						c-9.2,0.4-19.1-0.5-27.6-3.8c-21.9-8.5-28.6-34.5-13.2-52.2c21.2-24.4,53.8-33.4,84.9-19.8c9.6,4.2,11.1,12,13,21.6
						c-8.5,0.6-15.9,1.3-23.3,1.5c-1.6,0-3.9-1.2-4.6-2.5c-4.1-7.6-11-8.8-18.5-8.2c-15,1.3-28.8,13.8-31.3,28.7
						C686,180.6,687.1,185.8,694.6,187.3z"/>
					<path class="st2" d="M382.9,185.9c2.2,1.1,4.2,2.7,6.5,3.3c3.3,0.9,6.8,1.1,10.2,1.5c10.6,1.2,19.9-6.5,21.4-19.7
						c-11.6,2.5-22.2,4.3-32.6,7.2C386.1,178.9,384.8,183.2,382.9,185.9z"/>
					<path class="st2" d="M609,146.2c-11.2-2.3-21.8-0.9-30,8.1c-1.8,2-3,4.4-4.9,7.2c15.6,0,29.8,0,44.6,0
						C620.3,153.1,617.5,147.9,609,146.2z"/>
				</g>
			</g>
		</g>
	</g>
</g>
</svg>
