<svg xmlns="http://www.w3.org/2000/svg" viewBox="0 0 14.88 19.69"><defs><style>.cls-1{fill:#009fe3;}</style></defs><g id="Layer_2" data-name="Layer 2"><g id="Layer_1-2" data-name="Layer 1"><path class="cls-1" d="M13.72,9.09a16.41,16.41,0,0,1-1.05-1.43,9,9,0,0,1-1.85-4.42c-.05-.53-.06-1.07-.09-1.68H9.17V0H6.81C5.66,0,5.73-.16,5.72,1a4.73,4.73,0,0,1-.07.56,6.17,6.17,0,0,1-.75,0c-.63-.09-.85.18-.79.8a5.64,5.64,0,0,1-.7,3.3c-.57,1-1.23,2-1.89,2.91A6.26,6.26,0,0,0,0,12.6c.11,2-.11,1.85,1.83,1.81.5,0,.64.16.63.64,0,1.2,0,2.41,0,3.61,0,.56.21,1,.86,1s.91-.34.94-1c0-.54,0-1.09,0-1.64,0-.84,0-1.69,0-2.55h6.4v4.36a.77.77,0,0,0,.67.84.79.79,0,0,0,1-.52,2.1,2.1,0,0,0,.1-.71c0-1.31,0-2.62,0-4h1.69a.58.58,0,0,0,.68-.61c.11-1.69.06-3.33-1.12-4.72M8.38,11.36c0,.11,0,.22.08.34l-.06,0-.05,0-3-3.84.46,0,.44,0,.91,0C7.06,7.57,7,7.33,7,7.09l-.18-.72L6.44,5l.08,0,.76,1,.77,1,.39.5.79,1,.41.52H7.84c.2.86.37,1.65.54,2.42"/></g></g></svg>