<svg xmlns="http://www.w3.org/2000/svg" viewBox="0 0 17.01 20.2"><defs><style>.cls-1{fill:#009fe3;}</style></defs><g id="Layer_2" data-name="Layer 2"><g id="Layer_1-2" data-name="Layer 1"><path class="cls-1" d="M13.46,8.63,5.14,20.2l0,0Q7,15.67,9,11.13H5.08c.14-.41.28-.79.41-1.18Q7.22,5.08,8.93.2A.25.25,0,0,1,9.22,0h5.52L9.08,8.63Z"/><path class="cls-1" d="M5.66,15.86c-.23.53-.45,1.06-.68,1.58A8.47,8.47,0,0,1,7.26,1.35c0,.14-.09.28-.13.41-.16.44-.32.87-.46,1.31a.36.36,0,0,1-.26.25A6.55,6.55,0,0,0,1.89,8.47a6.49,6.49,0,0,0,2.29,6.42,11.65,11.65,0,0,0,1.32.88Z"/><path class="cls-1" d="M13,4.77l1-1.48a8.48,8.48,0,0,1-6,14.92l.07-.12c.36-.51.73-1,1.11-1.54l.23-.14a6.53,6.53,0,0,0,5.41-4.5,6.49,6.49,0,0,0-1.68-7Z"/></g></g></svg>