<svg xmlns="http://www.w3.org/2000/svg" viewBox="0 0 20.06 23.01"><defs><style>.cls-1{fill:#009fe3;}</style></defs><g id="Layer_2" data-name="Layer 2"><g id="Layer_1-2" data-name="Layer 1"><path class="cls-1" d="M17.07,23a2.42,2.42,0,0,1-1.79-1.94,2.78,2.78,0,0,1,.21-1.46c.62-1.29,1.34-2.53,2.08-3.9A17.21,17.21,0,0,1,20,20.17a2.3,2.3,0,0,1-1.31,2.63l-.42.21Z"/><path class="cls-1" d="M2.34,10.91c0,.76,0,1.47,0,2.17A1.11,1.11,0,0,1,1.17,14.3,1.14,1.14,0,0,1,0,13.07V4.67A1.2,1.2,0,0,1,1.16,3.4,1.19,1.19,0,0,1,2.34,4.69V6.12s0,.06,0,.16H3.53c.93,0,1.86,0,2.79,0A1.23,1.23,0,0,0,6.92,6c.47-.32.93-.66,1.32-.94C8.18,4.74,8,4.29,8.11,4s.59-.5.91-.74l.09.09v-1c-.83,0-1.63,0-2.42,0a.87.87,0,0,1-.88-1.25A.94.94,0,0,1,6.74.54c.67,0,1.34,0,2,0A.74.74,0,0,0,9.21.29a.64.64,0,0,1,1.06,0,.73.73,0,0,0,.44.25c.7,0,1.41,0,2.11,0a.87.87,0,0,1,.92,1.06.82.82,0,0,1-.92.7c-.8,0-1.6,0-2.45,0v1c1.14.29,1.4.8.79,1.7a4.59,4.59,0,0,1,2.16,1.68c.07.1.3.1.45.1h4.52c1.12,0,1.21.09,1.21,1.24V11c0,.24,0,.42.26.56a.74.74,0,0,1,.27.53,7.77,7.77,0,0,1,0,1.08.57.57,0,0,1-.61.62H16a.58.58,0,0,1-.61-.58,7.75,7.75,0,0,1,0-1.18.94.94,0,0,1,.2-.43c.09-.11.33-.18.33-.29a4.16,4.16,0,0,0,0-1.17c0-.14-.27-.25-.43-.34s-.19,0-.29,0a1.4,1.4,0,0,0-1.72,1,4,4,0,0,1-7,.54.74.74,0,0,0-.71-.37c-1.11,0-2.22,0-3.4,0"/></g></g></svg>