<svg xmlns="http://www.w3.org/2000/svg" viewBox="0 0 20.79 17.87"><defs><style>.cls-1{fill:#009fe3;}</style></defs><g id="Layer_2" data-name="Layer 2"><g id="Layer_1-2" data-name="Layer 1"><path class="cls-1" d="M19.71,6.71c0-1.17,0-2.33,0-3.49A.6.6,0,0,0,19,2.54H11.68a.61.61,0,0,0-.68.7V5.55h5.4a4.74,4.74,0,0,1,2.28.52c.35.18.67.42,1,.64m-13.14,9H3.73l-.13.09c-.25.6-.51,1.2-.76,1.81-.07.18,0,.29.2.3H5.33a.41.41,0,0,0,.41-.25c.27-.62.53-1.25.83-1.94"/><path class="cls-1" d="M0,9.87a9.22,9.22,0,0,1,.28-1A4.13,4.13,0,0,1,3.56,6.18a5.24,5.24,0,0,1,.88-.08H8.68V.73c0-.52.2-.72.72-.73h5.67a.85.85,0,0,1,.9.55.8.8,0,0,1-.68,1.09c-.77,0-1.54,0-2.31,0a.77.77,0,0,1-.58-.36l-.15-.1H9.86V6.1h6.53a4.33,4.33,0,0,1,2.23.56,4.07,4.07,0,0,1,2.1,3.13,5.23,5.23,0,0,1-.23,2.63,4.42,4.42,0,0,1-.83,1.34,3.54,3.54,0,0,0-6.86,1.37H4.29a4.24,4.24,0,0,1-4.23-3.5L0,11.37Z"/><path class="cls-1" d="M19.71,6.71c-.35-.22-.67-.46-1-.64a4.74,4.74,0,0,0-2.28-.52H11V3.24a.61.61,0,0,1,.68-.7H19a.6.6,0,0,1,.67.68c0,1.16,0,2.32,0,3.49"/><path class="cls-1" d="M6.57,15.67c-.3.69-.56,1.32-.83,1.94a.41.41,0,0,1-.41.25H3c-.2,0-.27-.12-.2-.3.25-.61.51-1.21.76-1.81l.13-.09H6.57"/><path class="cls-1" d="M16.35,12a2.95,2.95,0,1,0,2.92,3,3,3,0,0,0-2.92-3m0,3.91a1,1,0,0,1,0-1.93,1,1,0,0,1,1,1,1,1,0,0,1-1,1"/></g></g></svg>