<svg xmlns="http://www.w3.org/2000/svg" viewBox="0 0 34.92 27.85"><defs><style>.cls-1{fill:#183142;}</style></defs><g id="Layer_2" data-name="Layer 2"><g id="Layer_1-2" data-name="Layer 1"><path class="cls-1" d="M28.3,16l-2.06-2.44C24.9,12,25.11,10.72,25.17,8.68a.93.93,0,0,0-.67-.9l-2.38-.69A.9.9,0,0,0,21,7.74c-.4,1.72-1.83,3.36-3.53,3.36s-3.14-1.6-3.54-3.32a.9.9,0,0,0-1.11-.64l-2.42.64a.91.91,0,0,0-.67.91c0,1.9.22,3.36-1.08,4.9L6.57,16a6.28,6.28,0,0,0-1.48,4.05v5.17a2.58,2.58,0,0,0,2.59,2.59H27.17a2.66,2.66,0,0,0,2.66-2.66v-5A6.41,6.41,0,0,0,28.3,16M17.46,23.28a4.47,4.47,0,1,1,4.47-4.47,4.47,4.47,0,0,1-4.47,4.47"/><path class="cls-1" d="M33.58,4.75C30.22,2,24,0,17.46,0S4.7,2,1.34,4.75c-1.15,1-1.88,4-.84,6,.75,1.46,1.63,2.08,3.22,1.6l2.64-1.09c1-.26,1.29-.93,1.07-2.1-.47-2.58.24-3.4,2.55-4a33.56,33.56,0,0,1,7.48-.61,33.47,33.47,0,0,1,7.47.61c2.31.59,3,1.41,2.55,4-.22,1.17.05,1.84,1.08,2.1l2.64,1.09c1.59.48,2.47-.14,3.22-1.6,1-2,.3-5.06-.84-6"/></g></g></svg>