<svg xmlns="http://www.w3.org/2000/svg" viewBox="0 0 27.93 27.95"><defs><style>.cls-1{fill:#e99300;}</style></defs><g id="Layer_2" data-name="Layer 2"><g id="Layer_1-2" data-name="Layer 1"><path class="cls-1" d="M26.51,20,23,18.12c-.87-.47-1.54-.14-2.29.89-1.63,2.26-2.43,2.71-4.44,1.58a22.13,22.13,0,0,1-4.91-4,21.63,21.63,0,0,1-4-4.91c-1.12-2-.68-2.8,1.57-4.44,1-.75,1.37-1.43.9-2.29L7.89,1.42C7.11-.09,6-.26,4.36.29,2.09,1.06-.1,4.33,0,5.88c.33,4.55,2.61,10,7.33,14.74s10.2,7,14.73,7.32c1.56.12,4.81-2.1,5.58-4.36.56-1.65.38-2.76-1.13-3.54"/><path class="cls-1" d="M15.86,6.33a1.36,1.36,0,0,0,0,2.72h0A3,3,0,0,1,18,9.92a3,3,0,0,1,.89,2.16,1.34,1.34,0,0,0,1.34,1.37h0a1.35,1.35,0,0,0,1.36-1.34A5.66,5.66,0,0,0,20,8a5.83,5.83,0,0,0-4.11-1.68M24,4A11.4,11.4,0,0,0,15.87.66a1.36,1.36,0,0,0,0,2.72h0a8.67,8.67,0,0,1,8.68,8.71A1.36,1.36,0,0,0,26,13.45h0a1.35,1.35,0,0,0,1.36-1.35A11.33,11.33,0,0,0,24,4"/></g></g></svg>