<svg xmlns="http://www.w3.org/2000/svg" viewBox="0 0 35.31 35.32"><defs><style>.cls-1{fill:#e99300;}</style></defs><g id="Layer_2" data-name="Layer 2"><g id="Layer_1-2" data-name="Layer 1"><path class="cls-1" d="M1.8,13.53l.45.07a1.35,1.35,0,0,0,1.28-.91,15.82,15.82,0,0,1,.64-1.55A1.36,1.36,0,1,0,1.72,10,15.28,15.28,0,0,0,1,11.8a1.35,1.35,0,0,0,.83,1.73M1.47,19.9a1.35,1.35,0,0,0,1.27-1.44l0-.9v-.77a1.36,1.36,0,0,0-1.28-1.43A1.38,1.38,0,0,0,0,16.65l0,.91,0,1.06A1.35,1.35,0,0,0,1.38,19.9Zm4-11.77a1.39,1.39,0,0,0,1-.45A13.36,13.36,0,0,1,7.68,6.49a1.36,1.36,0,1,0-1.81-2,16.7,16.7,0,0,0-1.4,1.39,1.36,1.36,0,0,0,.1,1.92ZM6.54,27.58a1.36,1.36,0,0,0-2,1.81,18.49,18.49,0,0,0,1.4,1.4l.9.35a1.36,1.36,0,0,0,.91-2.37,14.73,14.73,0,0,1-1.18-1.19m4-23.27.58-.13a15.73,15.73,0,0,1,1.55-.63A1.36,1.36,0,1,0,11.81,1,16,16,0,0,0,10,1.73a1.36,1.36,0,0,0,.59,2.58m2.16,27.45a15.13,15.13,0,0,1-1.54-.65A1.36,1.36,0,1,0,10,33.55a17.11,17.11,0,0,0,1.82.77l.46.08a1.37,1.37,0,0,0,1.28-.91,1.35,1.35,0,0,0-.83-1.73M4.21,24.1a16.08,16.08,0,0,1-.64-1.54A1.36,1.36,0,1,0,1,23.47a18,18,0,0,0,.76,1.82A1.35,1.35,0,0,0,3,26.06l.59-.14a1.36,1.36,0,0,0,.63-1.82"/><path class="cls-1" d="M17.66,0H16.3V35.32h1.36A17.66,17.66,0,0,0,17.66,0M30.94,10.76H26.45A20.52,20.52,0,0,0,23.78,4a15,15,0,0,1,7.16,6.72M19,3.06c1.89.91,3.67,3.68,4.65,7.7H19Zm0,10.42h5.16a30.82,30.82,0,0,1,.27,4.08,30.73,30.73,0,0,1-.28,4.07H19Zm0,18.75V24.35h4.65c-1,4.08-2.79,6.92-4.65,7.88m4.74-1a20.8,20.8,0,0,0,2.7-6.92H31a15.13,15.13,0,0,1-7.23,6.92m3.15-9.64a33.44,33.44,0,0,0,.25-4.07,33.61,33.61,0,0,0-.25-4.08H32a14.73,14.73,0,0,1,0,8.15Z"/></g></g></svg>