<svg xmlns="http://www.w3.org/2000/svg" viewBox="0 0 35.49 35.49"><defs><style>.cls-1{fill:#183142;}</style></defs><g id="Layer_2" data-name="Layer 2"><g id="Layer_1-2" data-name="Layer 1"><path class="cls-1" d="M1.81,13.6l.45.07a1.38,1.38,0,0,0,1.29-.92,14.87,14.87,0,0,1,.64-1.55A1.36,1.36,0,0,0,1.73,10,15.49,15.49,0,0,0,1,11.86a1.37,1.37,0,0,0,.84,1.74M1.48,20a1.36,1.36,0,0,0,1.28-1.44l0-.92,0-.77A1.37,1.37,0,0,0,0,16.73l0,.91,0,1.08A1.36,1.36,0,0,0,1.39,20Zm4-11.83a1.39,1.39,0,0,0,1-.45,12.26,12.26,0,0,1,1.2-1.19A1.37,1.37,0,0,0,7.83,4.6,1.35,1.35,0,0,0,5.9,4.49a18.62,18.62,0,0,0-1.41,1.4,1.37,1.37,0,0,0,.1,1.93ZM6.57,27.72a1.36,1.36,0,0,0-2,1.81,15.64,15.64,0,0,0,1.41,1.41l.91.35a1.37,1.37,0,0,0,.91-2.38,13.36,13.36,0,0,1-1.19-1.19m4-23.38.59-.14a14.8,14.8,0,0,1,1.55-.63A1.37,1.37,0,0,0,11.87,1,18.28,18.28,0,0,0,10,1.74a1.37,1.37,0,0,0,.59,2.6m2.17,27.57a12.38,12.38,0,0,1-1.55-.65,1.36,1.36,0,1,0-1.19,2.45,19.71,19.71,0,0,0,1.83.78l.46.07a1.36,1.36,0,0,0,.45-2.65M4.23,24.22a14,14,0,0,1-.64-1.55A1.37,1.37,0,0,0,1,23.58a17.27,17.27,0,0,0,.77,1.83A1.35,1.35,0,0,0,3,26.18l.59-.13a1.37,1.37,0,0,0,.63-1.83"/><path class="cls-1" d="M17.74,0H16.38V35.49h1.36A17.75,17.75,0,1,0,17.74,0M31.09,10.82H26.58A20.59,20.59,0,0,0,23.9,4.06a15.08,15.08,0,0,1,7.19,6.76m-12-7.74C21,4,22.8,6.77,23.79,10.82H19.11Zm0,10.47h5.18a29.35,29.35,0,0,1,.28,4.1,31.16,31.16,0,0,1-.28,4.09H19.11Zm0,18.84V24.47h4.67c-1,4.1-2.79,7-4.67,7.92m4.77-1a21.11,21.11,0,0,0,2.71-7h4.55a15.21,15.21,0,0,1-7.26,7M27,21.74a32,32,0,0,0,.26-4.09,33.78,33.78,0,0,0-.26-4.1h5.14a14.93,14.93,0,0,1,.58,4.1,15.36,15.36,0,0,1-.57,4.09Z"/></g></g></svg>