<svg xmlns="http://www.w3.org/2000/svg" viewBox="0 0 320.96 56.52"><defs><style>.cls-1,.cls-4{fill:#e99300;}.cls-2{fill:#1d1d1b;}.cls-3{fill:#b2acab;}.cls-4{fill-rule:evenodd;}</style></defs><g id="Layer_2" data-name="Layer 2"><g id="Layer_1-2" data-name="Layer 1"><polygon class="cls-1" points="109.73 0.82 109.73 11.65 82.67 11.65 82.67 27.89 98.91 27.89 98.91 25.18 93.5 14.35 109.73 14.35 109.73 38.71 71.85 38.71 71.85 0.82 109.73 0.82"/><polygon class="cls-1" points="141.76 27.89 141.76 22.47 152.59 22.47 152.59 38.71 114.7 38.71 114.7 0.82 152.59 0.82 152.59 17.06 141.76 17.06 141.76 11.65 125.53 11.65 125.53 27.89 141.76 27.89"/><polygon class="cls-2" points="179.65 11.65 179.65 38.71 168.83 38.71 168.83 11.65 161.15 11.65 155.3 0.82 193.18 0.82 193.18 11.65 179.65 11.65"/><polygon class="cls-2" points="208.97 27.89 236.03 27.89 236.03 38.71 198.15 38.71 198.15 0.82 236.03 0.82 236.03 11.65 208.97 11.65 208.97 14.36 236.03 14.36 236.03 25.18 208.97 25.18 208.97 27.89"/><polygon class="cls-2" points="266.93 27.89 266.93 22.47 277.76 22.47 277.76 38.71 239.87 38.71 239.87 0.82 277.76 0.82 277.76 17.06 266.93 17.06 266.93 11.65 250.7 11.65 250.7 27.89 266.93 27.89"/><polygon class="cls-2" points="292.99 25.18 292.99 38.71 282.16 38.71 282.16 0.82 292.99 0.82 292.99 14.36 309.22 14.36 309.22 0.82 320.05 10.16 320.05 38.71 309.22 38.71 309.22 25.18 292.99 25.18"/><path class="cls-3" d="M77,56.52a5.29,5.29,0,0,1-3.19-1l.61-1.45A4.46,4.46,0,0,0,77,55c1.07,0,1.51-.38,1.51-.89,0-1.56-4.57-.49-4.57-3.59,0-1.41,1.08-2.6,3.31-2.6a5.11,5.11,0,0,1,2.73.74l-.56,1.47a4.26,4.26,0,0,0-2.18-.66c-1.07,0-1.49.43-1.49,1,0,1.54,4.57.47,4.57,3.53,0,1.4-1.09,2.59-3.34,2.59"/><path class="cls-3" d="M107.83,49.54a2.68,2.68,0,1,0,2.45,2.67,2.48,2.48,0,0,0-2.45-2.67m0,7a4.32,4.32,0,1,1,4.3-4.31,4.18,4.18,0,0,1-4.3,4.31"/><polygon class="cls-3" points="141.68 56.38 135.92 56.38 135.92 48.04 137.74 48.04 137.74 54.8 141.68 54.8 141.68 56.38"/><path class="cls-3" d="M168.52,56.52c-2.23,0-3.56-1.36-3.56-3.81V48h1.82v4.59c0,1.59.65,2.25,1.75,2.25s1.75-.66,1.75-2.25V48h1.8v4.67c0,2.45-1.33,3.81-3.56,3.81"/><polygon class="cls-3" points="199.61 56.38 197.79 56.38 197.79 49.61 195.28 49.61 195.28 48.04 202.12 48.04 202.12 49.61 199.61 49.61 199.61 56.38"/><rect class="cls-3" x="225.53" y="48.04" width="1.82" height="8.34"/><path class="cls-3" d="M255.45,49.54a2.68,2.68,0,1,0,2.46,2.67,2.48,2.48,0,0,0-2.46-2.67m0,7a4.32,4.32,0,1,1,4.3-4.31,4.18,4.18,0,0,1-4.3,4.31"/><polygon class="cls-3" points="290.75 56.38 289.26 56.38 285.34 51.31 285.34 56.38 283.55 56.38 283.55 48.04 285.05 48.04 288.95 53.1 288.95 48.04 290.75 48.04 290.75 56.38"/><path class="cls-3" d="M317.62,56.52a5.29,5.29,0,0,1-3.19-1L315,54.1a4.45,4.45,0,0,0,2.59.87c1.08,0,1.52-.38,1.52-.89,0-1.56-4.57-.49-4.57-3.59,0-1.41,1.08-2.6,3.31-2.6a5.11,5.11,0,0,1,2.73.74l-.56,1.47a4.26,4.26,0,0,0-2.18-.66c-1.07,0-1.49.43-1.49,1,0,1.54,4.57.47,4.57,3.53,0,1.4-1.09,2.59-3.34,2.59"/><polygon class="cls-4" points="313.43 0.35 320.1 7.03 320.1 0.35 313.43 0.35"/><polygon class="cls-2" points="0 0 54.94 0 54.94 54.94 27.92 27.02 0 0"/><polygon class="cls-1" points="37.7 48.53 7.2 48.53 7.2 18.02 22.2 33.53 37.7 48.53"/></g></g></svg>