<svg xmlns="http://www.w3.org/2000/svg" viewBox="0 0 33.47 31.05"><defs><style>.cls-1{fill:#e99300;}</style></defs><g id="Layer_2" data-name="Layer 2"><g id="Layer_1-2" data-name="Layer 1"><path class="cls-1" d="M31.86,8.76,18.7.57a3.69,3.69,0,0,0-3.94,0L1.61,8.76A3.4,3.4,0,0,0,0,11.62v16a3.44,3.44,0,0,0,3.49,3.4H30a3.45,3.45,0,0,0,3.49-3.4v-16a3.4,3.4,0,0,0-1.61-2.86M12.45,22.3,4.3,28.64l-.7.24-.89-.44a1.12,1.12,0,0,1,.2-1.58l8.15-6.34a1.13,1.13,0,1,1,1.39,1.78m3.21-2.66L5.34,12.33a1.41,1.41,0,0,1,.85-2.57H27.27a1.42,1.42,0,0,1,.86,2.57L17.81,19.64a1.85,1.85,0,0,1-2.15,0m15.1,8.8-.9.44-.69-.24L21,22.3a1.13,1.13,0,1,1,1.39-1.78l8.15,6.34a1.13,1.13,0,0,1,.2,1.58"/><path class="cls-1" d="M20.81,11.9H13.57a1.36,1.36,0,1,0,0,2.72h7.24a1.36,1.36,0,1,0,0-2.72"/></g></g></svg>