<svg xmlns="http://www.w3.org/2000/svg" viewBox="0 0 24.79 31.85"><defs><style>.cls-1{fill:#183142;}</style></defs><g id="Layer_2" data-name="Layer 2"><g id="Layer_1-2" data-name="Layer 1"><path class="cls-1" d="M11.3.06a10.37,10.37,0,0,0-8.94,11.1c.61,7,7.08,12.29,9.3,13.89a1.19,1.19,0,0,0,1.46,0c2.3-1.8,9.38-7.9,9.38-14.94A10.1,10.1,0,0,0,11.3.06m1.1,14a4,4,0,1,1,4-4,4,4,0,0,1-4,4"/><path class="cls-1" d="M24.75,29.57,23.1,22.08a1.87,1.87,0,0,0-1.83-1.47h-.53a33.35,33.35,0,0,1-6.22,6.21,3.49,3.49,0,0,1-4.19.08,30.51,30.51,0,0,1-6.46-6.29H3.48a1.86,1.86,0,0,0-1.83,1.48L0,29.58a1.88,1.88,0,0,0,1.83,2.27H22.92a1.87,1.87,0,0,0,1.83-2.28"/></g></g></svg>