<svg xmlns="http://www.w3.org/2000/svg" viewBox="0 0 22.48 22.49"><defs><style>.cls-1{fill:#009fe3;}</style></defs><g id="Layer_2" data-name="Layer 2"><g id="Layer_1-2" data-name="Layer 1"><path class="cls-1" d="M9.5,12.45l.24-.37a.84.84,0,0,1,1-.48.8.8,0,0,1,.56.87c0,.39,0,.77,0,1.15,0,1.8,0,3.59,0,5.39a2.11,2.11,0,0,1-.71,1.69.72.72,0,0,0-.27.65c0,.29,0,.57,0,.86s-.05.27-.26.27H2.75c-.12,0-.23,0-.24-.17a4.85,4.85,0,0,0-.68-1.87C1.25,19.33.67,18.22.1,17.1a1,1,0,0,1-.1-.44v-4.6a.75.75,0,0,1,.78-.85A1.25,1.25,0,0,1,2,12.09a4.19,4.19,0,0,1,.09,1c0,.9,0,1.81,0,2.71l.18.17a.54.54,0,0,0,.31,0l.18-.16V6.27a1,1,0,0,1,.44-1,1.21,1.21,0,0,1,1.26.12.9.9,0,0,1,.23.56c0,1.42,0,2.85,0,4.27,0,.1.1.2.16.31.11-.07.25-.12.31-.23a1.06,1.06,0,0,1,1.08-.53,1.19,1.19,0,0,1,.89.69,5.72,5.72,0,0,1,0,.59,1.9,1.9,0,0,0,.1.28c.09-.06.23-.1.27-.18a.92.92,0,0,1,1.65,0,1.67,1.67,0,0,1,.16.63c0,.22,0,.45,0,.68Z"/><path class="cls-1" d="M22.48,16.56l-1.31-.41a7.85,7.85,0,0,1-2.68-1.45,7.63,7.63,0,0,1-2.31-3.53,4.85,4.85,0,0,1-.2-1.6c0-.08,0-.16,0-.31l.51.69a9.54,9.54,0,0,0,3.79,3,6.85,6.85,0,0,0,2,.62c.14,0,.21.06.21.22,0,.89,0,1.78,0,2.73"/><path class="cls-1" d="M15.32,4.65a2.56,2.56,0,0,1,2.25.77,5.13,5.13,0,0,1,1.27,2,10.27,10.27,0,0,0,2.32,3.68c.36.31.77.57,1.14.84a3.69,3.69,0,0,1-3.44-.79,6,6,0,0,1-1.69-2.47c-.3-.75-.49-1.55-.72-2.34a3.05,3.05,0,0,0-1.13-1.7"/><path class="cls-1" d="M1,3C1,2.12,1,1.2,1,.28,1,.07,1,0,1.23,0H6.78C7,0,7,.07,7,.26Q7,3,7,5.81c0,.19,0,.28-.25.27H5.47c-.16,0-.22,0-.22-.22,0-.63,0-.54.54-.55.43,0,.43,0,.43-.43,0-1.24,0-2.48,0-3.73,0-.27-.09-.34-.35-.34-1.26,0-2.52,0-3.78,0-.25,0-.32.07-.32.32,0,1.29,0,2.59,0,3.89,0,.24.08.31.31.3s.34,0,.35.08a1.72,1.72,0,0,1,0,.6l-.15.07H1.15C1,6.08,1,6,1,5.83,1,4.9,1,4,1,3"/><path class="cls-1" d="M13.83,15a3.32,3.32,0,0,1,1.57-.59,3.66,3.66,0,0,1,3.06,1.37,6.85,6.85,0,0,0,1.73,1.45c.52.26,1.06.46,1.6.67.19.08.4.12.64.2a3.51,3.51,0,0,1-1.83.78,4,4,0,0,1-3.86-1.73c-.3-.4-.63-.77-1-1.14a3.9,3.9,0,0,0-1.94-1"/><path class="cls-1" d="M22.45,19.61c0,.11,0,.18,0,.25,0,.79,0,1.57,0,2.36,0,.22-.08.26-.28.27a11,11,0,0,1-2.81-.23,3.72,3.72,0,0,1-2.61-2A15,15,0,0,1,16,18.36a6.57,6.57,0,0,0,6.41,1.25"/><path class="cls-1" d="M2.14,3.05A1.76,1.76,0,0,1,3.92,1.33,1.79,1.79,0,0,1,5.64,3.12,1.73,1.73,0,0,1,3.85,4.79,1.7,1.7,0,0,1,2.14,3.05"/><path class="cls-1" d="M19.61,3.39c.2.53.37,1,.57,1.47a5.91,5.91,0,0,0,1.34,2.07,6.86,6.86,0,0,0,.76.53l.19.22c0,.93,0,1.86,0,2.84a8.74,8.74,0,0,1-2.64-2.88,6.31,6.31,0,0,1-.23-4.25"/></g></g></svg>