<svg xmlns="http://www.w3.org/2000/svg" viewBox="0 0 24.67 31.69"><defs><style>.cls-1{fill:#e99300;}</style></defs><g id="Layer_2" data-name="Layer 2"><g id="Layer_1-2" data-name="Layer 1"><path class="cls-1" d="M11.24.06a10.34,10.34,0,0,0-8.9,11c.61,7,7.05,12.23,9.26,13.83a1.2,1.2,0,0,0,1.45,0c2.29-1.79,9.33-7.86,9.33-14.86A10,10,0,0,0,11.24.06m1.1,14a4,4,0,1,1,4-4,4,4,0,0,1-4,4"/><path class="cls-1" d="M24.63,29.43,23,22a1.85,1.85,0,0,0-1.82-1.46h-.53a32.73,32.73,0,0,1-6.19,6.18,3.44,3.44,0,0,1-2.13.74,3.5,3.5,0,0,1-2-.66,30.71,30.71,0,0,1-6.42-6.26H3.46A1.85,1.85,0,0,0,1.64,22L0,29.44a1.86,1.86,0,0,0,1.82,2.25h21a1.87,1.87,0,0,0,1.82-2.26"/></g></g></svg>