<svg xmlns="http://www.w3.org/2000/svg" viewBox="0 0 33.63 31.19"><defs><style>.cls-1{fill:#183142;}</style></defs><g id="Layer_2" data-name="Layer 2"><g id="Layer_1-2" data-name="Layer 1"><path class="cls-1" d="M32,8.8,18.8.57a3.74,3.74,0,0,0-4,0L1.62,8.8A3.41,3.41,0,0,0,0,11.68V27.79a3.45,3.45,0,0,0,3.5,3.4H30.13a3.45,3.45,0,0,0,3.5-3.4V11.68A3.41,3.41,0,0,0,32,8.8M12.51,22.41,4.32,28.78l-.7.24-.9-.44A1.14,1.14,0,0,1,2.92,27l8.19-6.37a1.14,1.14,0,1,1,1.4,1.79m3.22-2.67L5.36,12.39a1.42,1.42,0,0,1,.86-2.58H27.41a1.42,1.42,0,0,1,.86,2.58L17.9,19.74a1.88,1.88,0,0,1-2.17,0m15.18,8.84L30,29l-.7-.24-8.19-6.37a1.14,1.14,0,1,1,1.4-1.79L30.71,27a1.14,1.14,0,0,1,.2,1.59"/><path class="cls-1" d="M20.91,12H13.63a1.37,1.37,0,1,0,0,2.73h7.28a1.37,1.37,0,0,0,0-2.73"/></g></g></svg>