<svg xmlns="http://www.w3.org/2000/svg" viewBox="0 0 388.93 326.95"><defs><style>.cls-1{fill:#2b2c5d;}.cls-2{font-size:12.77px;font-family:HelveticaLTStd-UltraComp, HelveticaLTStd UltraComp;}.cls-11,.cls-13,.cls-2,.cls-4,.cls-6,.cls-8,.cls-9{fill:#fff;}.cls-3{fill:#009fe3;}.cls-4{font-size:13.33px;}.cls-11,.cls-13,.cls-4,.cls-6,.cls-8,.cls-9{font-family:HelveticaLTStd-ExtraComp, HelveticaLTStd ExtraComp;}.cls-5{fill:#b8c459;}.cls-6{font-size:9.01px;}.cls-7{fill:#e89200;}.cls-8{font-size:6.36px;}.cls-9{font-size:10px;}.cls-10{fill:#231f20;}.cls-11{font-size:9.82px;}.cls-12{fill:#82368c;}.cls-13{font-size:9.59px;}.cls-14{fill:#1d1d1b;}</style></defs><g id="Layer_2" data-name="Layer 2"><g id="Layer_1-2" data-name="Layer 1"><path class="cls-1" d="M234.28,44.16A38.21,38.21,0,1,1,196.07,6a38.21,38.21,0,0,1,38.21,38.21"/><path class="cls-1" d="M198.41,90a43.48,43.48,0,1,1,42.15-32.65l-.84-.21a42.66,42.66,0,1,0-41.31,32,42.49,42.49,0,0,0,23.85-7.28l.48.71A43.25,43.25,0,0,1,198.41,90"/><path class="cls-1" d="M195.44,90c-13.59,0-25.82-4.83-34.46-13.6-8.07-8.2-12.23-19.06-12-31.42.21-13.07,3.8-30.52,19.75-39.42C175.55,1.74,187.36,0,195.44,0c14.22,0,28.08,6,37.06,16.15a36.69,36.69,0,0,1,9.43,28.91c-.14,1.15-.24,2.3-.34,3.44a45.48,45.48,0,0,1-1.13,7.76l-.83-.22a44.43,44.43,0,0,0,1.1-7.61c.1-1.15.2-2.31.34-3.47a35.86,35.86,0,0,0-9.21-28.24C223,6.79,209.42.86,195.44.86c-8,0-19.61,1.72-26.33,5.47C153.52,15,150,32.17,149.81,45c-.19,12.12,3.88,22.77,11.79,30.8,8.47,8.6,20.48,13.34,33.84,13.34A46.49,46.49,0,0,0,221,81.61l.47.72a47.28,47.28,0,0,1-26,7.69"/><path class="cls-1" d="M239.67,79.1a1.94,1.94,0,0,1-1.13-.35.79.79,0,0,1-.17-1.38,10.8,10.8,0,0,0,1.59-1.9,3.12,3.12,0,0,0,.44-1.55,1.28,1.28,0,0,0-.58-1,5.94,5.94,0,0,1-1.59-1.68,3.85,3.85,0,0,1-.45-1.91,3.94,3.94,0,0,1,1.1-2.86,3.7,3.7,0,0,1,2.77-1.15,3.76,3.76,0,0,1,3,1.46,4.7,4.7,0,0,1,1.05,3.06q0,4.22-4.08,8.26a2.92,2.92,0,0,1-2,1m-9.28,0a1.94,1.94,0,0,1-1.13-.35,1,1,0,0,1-.5-.77,1,1,0,0,1,.35-.61,11,11,0,0,0,1.57-1.9,3.12,3.12,0,0,0,.44-1.55,1.29,1.29,0,0,0-.57-1,6,6,0,0,1-1.6-1.68,3.85,3.85,0,0,1-.45-1.91,4,4,0,0,1,1.1-2.86,3.71,3.71,0,0,1,2.77-1.15,3.76,3.76,0,0,1,3,1.46,4.7,4.7,0,0,1,1.05,3.06q0,4.22-4.08,8.26a2.92,2.92,0,0,1-2,1"/><text class="cls-2" transform="translate(175.14 42.01) scale(1.48 1)">Direction </text><text class="cls-2" transform="translate(176.54 55.42) scale(1.48 1)">de Projet</text><path class="cls-3" d="M118.66,98.44A30.89,30.89,0,1,1,87.78,67.55a30.88,30.88,0,0,1,30.88,30.89"/><path class="cls-3" d="M89.67,135.5a35.15,35.15,0,1,1,34.07-26.39l-.68-.17A34.48,34.48,0,1,0,89.67,134.8a34.28,34.28,0,0,0,19.27-5.88l.39.57a35,35,0,0,1-19.66,6"/><path class="cls-3" d="M87.26,135.5c-11,0-20.87-3.9-27.85-11-6.52-6.63-9.88-15.41-9.73-25.39.17-10.57,3.07-24.67,16-31.87,5.54-3.1,15.09-4.51,21.61-4.51a40.49,40.49,0,0,1,30,13.06,29.61,29.61,0,0,1,7.61,23.36c-.11.94-.19,1.86-.27,2.79a36.72,36.72,0,0,1-.91,6.27L123,108a35.87,35.87,0,0,0,.88-6.15c.09-.93.17-1.87.28-2.81a29,29,0,0,0-7.45-22.82A39.74,39.74,0,0,0,87.26,63.44c-6.43,0-15.84,1.38-21.27,4.42-12.61,7-15.45,20.89-15.61,31.27-.15,9.79,3.14,18.4,9.53,24.89,6.85,7,16.56,10.78,27.35,10.78a37.55,37.55,0,0,0,20.63-6.09l.38.58a38.21,38.21,0,0,1-21,6.21"/><path class="cls-3" d="M123,126.68a1.57,1.57,0,0,1-.92-.29.78.78,0,0,1-.4-.62.76.76,0,0,1,.27-.49,8.72,8.72,0,0,0,1.28-1.54,2.46,2.46,0,0,0,.36-1.25,1,1,0,0,0-.47-.82,4.79,4.79,0,0,1-1.28-1.36,3,3,0,0,1-.37-1.54,3.23,3.23,0,0,1,.89-2.32,3,3,0,0,1,2.24-.92,3,3,0,0,1,2.46,1.17,3.84,3.84,0,0,1,.85,2.48q0,3.41-3.3,6.68a2.41,2.41,0,0,1-1.61.82m-7.5,0a1.57,1.57,0,0,1-.92-.29.63.63,0,0,1-.12-1.11,8.58,8.58,0,0,0,1.27-1.54,2.46,2.46,0,0,0,.36-1.25,1,1,0,0,0-.47-.82,4.79,4.79,0,0,1-1.28-1.36,3,3,0,0,1-.37-1.54,3.23,3.23,0,0,1,.89-2.32,3,3,0,0,1,2.24-.92,3,3,0,0,1,2.46,1.17,3.84,3.84,0,0,1,.85,2.48q0,3.41-3.3,6.68a2.41,2.41,0,0,1-1.61.82"/><text class="cls-4" transform="translate(71.15 95.99) scale(1.42 1)">Cellule</text><text class="cls-4" transform="translate(78.33 109.99) scale(1.42 1)">OPC</text><path class="cls-5" d="M53.12,158.85a23.78,23.78,0,1,1-23.78-23.78,23.78,23.78,0,0,1,23.78,23.78"/><path class="cls-5" d="M30.79,187.39A27.08,27.08,0,1,1,57,167.08l-.52-.14a26.57,26.57,0,1,0-10.87,15.38l.31.45a27,27,0,0,1-15.15,4.62"/><path class="cls-5" d="M28.94,187.39c-8.45,0-16.07-3-21.44-8.46A26.58,26.58,0,0,1,0,159.38c.13-8.14,2.37-19,12.3-24.54,4.26-2.38,11.62-3.47,16.64-3.47a31.16,31.16,0,0,1,23.07,10,22.81,22.81,0,0,1,5.87,18c-.09.72-.15,1.44-.21,2.15a29,29,0,0,1-.7,4.82l-.52-.13a27.76,27.76,0,0,0,.68-4.74q.09-1.08.21-2.16a22.28,22.28,0,0,0-5.73-17.57,30.63,30.63,0,0,0-22.67-9.87c-5,0-12.2,1.06-16.38,3.4C2.85,140.73.67,151.39.54,159.39a26,26,0,0,0,7.34,19.16c5.27,5.36,12.75,8.31,21.06,8.31a28.93,28.93,0,0,0,15.88-4.7l.3.45a29.47,29.47,0,0,1-16.18,4.78"/><path class="cls-5" d="M56.47,180.6a1.14,1.14,0,0,1-.7-.22.58.58,0,0,1-.31-.48.64.64,0,0,1,.2-.38,6.5,6.5,0,0,0,1-1.18,1.87,1.87,0,0,0,.28-1,.81.81,0,0,0-.36-.63,3.76,3.76,0,0,1-1-1,2.38,2.38,0,0,1-.29-1.19,2.45,2.45,0,0,1,.69-1.78A2.28,2.28,0,0,1,57.7,172a2.34,2.34,0,0,1,1.9.91,2.94,2.94,0,0,1,.65,1.9A7.33,7.33,0,0,1,57.71,180a1.86,1.86,0,0,1-1.24.63m-5.77,0a1.17,1.17,0,0,1-.71-.22.6.6,0,0,1-.31-.48.59.59,0,0,1,.22-.38,7.3,7.3,0,0,0,1-1.18,2,2,0,0,0,.27-1,.81.81,0,0,0-.36-.63,3.76,3.76,0,0,1-1-1,2.38,2.38,0,0,1-.28-1.19,2.45,2.45,0,0,1,.69-1.78,2.26,2.26,0,0,1,1.72-.72,2.31,2.31,0,0,1,1.89.91,2.89,2.89,0,0,1,.66,1.9A7.33,7.33,0,0,1,51.94,180a1.88,1.88,0,0,1-1.24.63"/><text class="cls-6" transform="translate(13.97 163.19) scale(1.32 1)">Planning</text><path class="cls-7" d="M147.19,167.7a23.78,23.78,0,1,1-23.78-23.78,23.78,23.78,0,0,1,23.78,23.78"/><path class="cls-7" d="M124.87,196.24a27,27,0,1,1,26.23-20.32l-.52-.14a26.31,26.31,0,0,0,.84-6.63,26.56,26.56,0,1,0-11.71,22l.3.45a26.91,26.91,0,0,1-15.14,4.63"/><path class="cls-7" d="M123,196.24c-8.46,0-16.07-3-21.45-8.47a26.58,26.58,0,0,1-7.49-19.55c.13-8.13,2.36-19,12.29-24.54,4.27-2.38,11.62-3.47,16.65-3.47a31.18,31.18,0,0,1,23.07,10,22.83,22.83,0,0,1,5.86,18c-.08.71-.14,1.43-.21,2.14a27.16,27.16,0,0,1-.7,4.83l-.52-.14a27.61,27.61,0,0,0,.69-4.74c.06-.71.12-1.43.21-2.16a22.31,22.31,0,0,0-5.73-17.57A30.63,30.63,0,0,0,123,140.75c-5,0-12.2,1.06-16.39,3.4-9.7,5.42-11.89,16.09-12,24.08A26,26,0,0,0,102,187.39c5.27,5.36,12.75,8.31,21.06,8.31A28.87,28.87,0,0,0,138.9,191l.29.45A29.43,29.43,0,0,1,123,196.24"/><path class="cls-7" d="M150.55,189.44a1.19,1.19,0,0,1-.71-.22.49.49,0,0,1-.1-.86,6.58,6.58,0,0,0,1-1.18,1.94,1.94,0,0,0,.27-1,.8.8,0,0,0-.35-.64,3.67,3.67,0,0,1-1-1,2.38,2.38,0,0,1-.28-1.19,2.45,2.45,0,0,1,.69-1.78,2.26,2.26,0,0,1,1.72-.71,2.33,2.33,0,0,1,1.89.9,2.92,2.92,0,0,1,.66,1.91,7.32,7.32,0,0,1-2.54,5.14,1.86,1.86,0,0,1-1.24.63m-5.78,0a1.16,1.16,0,0,1-.7-.22.49.49,0,0,1-.09-.86,6.32,6.32,0,0,0,1-1.18,1.86,1.86,0,0,0,.28-1,.81.81,0,0,0-.36-.64,3.76,3.76,0,0,1-1-1,2.38,2.38,0,0,1-.28-1.19,2.44,2.44,0,0,1,.68-1.78,2.27,2.27,0,0,1,1.72-.71,2.35,2.35,0,0,1,1.9.9,2.91,2.91,0,0,1,.65,1.91,7.28,7.28,0,0,1-2.54,5.14,1.84,1.84,0,0,1-1.24.63"/><text class="cls-8" transform="translate(115.56 167.82) scale(1.21 1)">Cellule</text><text class="cls-8" transform="translate(115.86 174.5) scale(1.21 1)">Etudes</text><path class="cls-7" d="M220.33,167.7a23.78,23.78,0,1,1-23.78-23.78,23.78,23.78,0,0,1,23.78,23.78"/><path class="cls-7" d="M198,196.24a27.09,27.09,0,1,1,27.09-27.09,27.48,27.48,0,0,1-.85,6.77l-.52-.14A26.56,26.56,0,1,0,198,195.7a26.41,26.41,0,0,0,14.85-4.54l.3.45A26.94,26.94,0,0,1,198,196.24"/><path class="cls-7" d="M196.15,196.24c-8.45,0-16.07-3-21.44-8.47a26.58,26.58,0,0,1-7.49-19.55c.12-8.13,2.36-19,12.29-24.54,4.27-2.38,11.62-3.47,16.64-3.47a31.16,31.16,0,0,1,23.07,10,22.84,22.84,0,0,1,5.87,18c-.09.71-.15,1.43-.21,2.14a29.12,29.12,0,0,1-.7,4.83l-.52-.14a27.61,27.61,0,0,0,.68-4.74c.07-.71.13-1.43.21-2.16a22.28,22.28,0,0,0-5.73-17.57,30.61,30.61,0,0,0-22.67-9.87c-5,0-12.2,1.06-16.38,3.4-9.71,5.42-11.89,16.09-12,24.08a26.06,26.06,0,0,0,7.34,19.16c5.27,5.36,12.75,8.31,21.06,8.31A28.82,28.82,0,0,0,212,191l.3.45a29.48,29.48,0,0,1-16.18,4.79"/><path class="cls-7" d="M223.68,189.44a1.16,1.16,0,0,1-.7-.22.58.58,0,0,1-.31-.48.61.61,0,0,1,.21-.38,6.05,6.05,0,0,0,1-1.18,1.86,1.86,0,0,0,.28-1,.81.81,0,0,0-.36-.64,3.76,3.76,0,0,1-1-1,2.38,2.38,0,0,1-.28-1.19,2.44,2.44,0,0,1,.68-1.78,2.27,2.27,0,0,1,1.72-.71,2.35,2.35,0,0,1,1.9.9,2.91,2.91,0,0,1,.65,1.91,7.31,7.31,0,0,1-2.53,5.14,1.88,1.88,0,0,1-1.25.63m-5.77,0a1.14,1.14,0,0,1-.7-.22.59.59,0,0,1-.32-.48.64.64,0,0,1,.22-.38,6.45,6.45,0,0,0,1-1.18,2,2,0,0,0,.28-1,.81.81,0,0,0-.36-.64,3.67,3.67,0,0,1-1-1,2.49,2.49,0,0,1-.28-1.19,2.45,2.45,0,0,1,.69-1.78,2.27,2.27,0,0,1,1.72-.71,2.33,2.33,0,0,1,1.89.9,2.92,2.92,0,0,1,.66,1.91,7.32,7.32,0,0,1-2.54,5.14,1.86,1.86,0,0,1-1.24.63"/><text class="cls-8" transform="translate(188.56 165.74) scale(1.21 1)">Cellule</text><text class="cls-8" transform="translate(175.71 172.42) scale(1.21 1)">Approvisionnement</text><path class="cls-7" d="M293.47,167.7a23.78,23.78,0,1,1-23.78-23.78,23.78,23.78,0,0,1,23.78,23.78"/><path class="cls-7" d="M271.14,196.24a27.09,27.09,0,1,1,26.23-20.32l-.52-.14a26.31,26.31,0,0,0,.84-6.63,26.56,26.56,0,1,0-11.71,22l.3.45a26.91,26.91,0,0,1-15.14,4.63"/><path class="cls-7" d="M269.29,196.24c-8.46,0-16.07-3-21.44-8.47a26.55,26.55,0,0,1-7.5-19.55c.13-8.13,2.37-19,12.29-24.54,4.27-2.38,11.62-3.47,16.65-3.47a31.18,31.18,0,0,1,23.07,10,22.83,22.83,0,0,1,5.86,18c-.08.71-.14,1.43-.2,2.14a28.11,28.11,0,0,1-.71,4.83l-.52-.14a26.66,26.66,0,0,0,.69-4.74c.06-.71.12-1.43.21-2.16A22.31,22.31,0,0,0,292,150.62a30.63,30.63,0,0,0-22.67-9.87c-5,0-12.2,1.06-16.38,3.4-9.71,5.42-11.9,16.09-12,24.08a26,26,0,0,0,7.34,19.16c5.27,5.36,12.75,8.31,21.06,8.31a28.87,28.87,0,0,0,15.88-4.7l.29.45a29.43,29.43,0,0,1-16.17,4.79"/><path class="cls-7" d="M296.82,189.44a1.14,1.14,0,0,1-.7-.22.5.5,0,0,1-.11-.86,6.58,6.58,0,0,0,1-1.18,2,2,0,0,0,.28-1,.81.81,0,0,0-.36-.64,3.48,3.48,0,0,1-1-1,2.38,2.38,0,0,1-.29-1.19,2.45,2.45,0,0,1,.69-1.78,2.27,2.27,0,0,1,1.72-.71,2.36,2.36,0,0,1,1.9.9,3,3,0,0,1,.65,1.91,7.32,7.32,0,0,1-2.54,5.14,1.86,1.86,0,0,1-1.24.63m-5.78,0a1.16,1.16,0,0,1-.7-.22.49.49,0,0,1-.09-.86,6.32,6.32,0,0,0,1-1.18,1.86,1.86,0,0,0,.28-1,.81.81,0,0,0-.36-.64,3.76,3.76,0,0,1-1-1,2.38,2.38,0,0,1-.28-1.19,2.49,2.49,0,0,1,.68-1.78,2.27,2.27,0,0,1,1.72-.71,2.35,2.35,0,0,1,1.9.9,2.91,2.91,0,0,1,.65,1.91,7.31,7.31,0,0,1-2.53,5.14,1.88,1.88,0,0,1-1.25.63"/><text class="cls-8" transform="translate(261.83 166.82) scale(1.21 1)">Cellule</text><text class="cls-8" transform="translate(254.34 173.5) scale(1.21 1)">Construction</text><path class="cls-5" d="M53.12,228a23.78,23.78,0,1,1-23.78-23.78A23.78,23.78,0,0,1,53.12,228"/><path class="cls-5" d="M30.79,256.53A27.09,27.09,0,1,1,57,236.21l-.52-.13a26.54,26.54,0,1,0-10.87,15.38l.31.44a26.94,26.94,0,0,1-15.15,4.63"/><path class="cls-5" d="M28.94,256.53c-8.45,0-16.07-3-21.44-8.47A26.58,26.58,0,0,1,0,228.51c.13-8.13,2.37-19,12.3-24.54,4.26-2.38,11.62-3.47,16.64-3.47A31.16,31.16,0,0,1,52,210.55a22.84,22.84,0,0,1,5.87,18c-.09.72-.15,1.43-.21,2.14a29.12,29.12,0,0,1-.7,4.83l-.52-.14a27.61,27.61,0,0,0,.68-4.74q.09-1.06.21-2.16a22.28,22.28,0,0,0-5.73-17.57A30.63,30.63,0,0,0,28.94,201c-5,0-12.2,1.06-16.38,3.4C2.85,209.86.67,220.53.54,228.52a26.06,26.06,0,0,0,7.34,19.17C13.15,253,20.63,256,28.94,256a28.92,28.92,0,0,0,15.88-4.69l.3.45a29.56,29.56,0,0,1-16.18,4.78"/><path class="cls-5" d="M56.47,249.73a1.14,1.14,0,0,1-.7-.22.58.58,0,0,1-.31-.47.66.66,0,0,1,.2-.39,6.18,6.18,0,0,0,1-1.18,1.83,1.83,0,0,0,.28-1,.78.78,0,0,0-.36-.63,3.92,3.92,0,0,1-1-1,2.36,2.36,0,0,1-.29-1.19,2.47,2.47,0,0,1,.69-1.78,2.27,2.27,0,0,1,1.72-.71,2.36,2.36,0,0,1,1.9.9,3,3,0,0,1,.65,1.91,7.32,7.32,0,0,1-2.54,5.14,1.86,1.86,0,0,1-1.24.63m-5.77,0a1.17,1.17,0,0,1-.71-.22.49.49,0,0,1-.09-.86,6.89,6.89,0,0,0,1-1.18,1.92,1.92,0,0,0,.27-1,.78.78,0,0,0-.36-.63,3.92,3.92,0,0,1-1-1,2.35,2.35,0,0,1-.28-1.19,2.47,2.47,0,0,1,.69-1.78,2.26,2.26,0,0,1,1.72-.71,2.33,2.33,0,0,1,1.89.9,2.92,2.92,0,0,1,.66,1.91,7.32,7.32,0,0,1-2.54,5.14,1.88,1.88,0,0,1-1.24.63"/><text class="cls-6" transform="translate(23.08 225.11) scale(1.32 1)">Doc</text><text class="cls-6" transform="translate(13.75 233.05) scale(1.32 1)">Contrôle</text><path class="cls-5" d="M381.79,158.85A23.78,23.78,0,1,1,358,135.07a23.77,23.77,0,0,1,23.78,23.78"/><path class="cls-5" d="M359.47,187.39a27,27,0,1,1,26.23-20.31l-.52-.14a26.57,26.57,0,1,0-10.87,15.38l.3.45a27,27,0,0,1-15.14,4.62"/><path class="cls-5" d="M357.62,187.39c-8.46,0-16.07-3-21.45-8.46a26.58,26.58,0,0,1-7.49-19.55c.13-8.14,2.36-19,12.29-24.54,4.27-2.38,11.62-3.47,16.65-3.47a31.18,31.18,0,0,1,23.07,10,22.8,22.8,0,0,1,5.86,18c-.08.72-.15,1.44-.21,2.15a27,27,0,0,1-.7,4.82l-.52-.13a27.75,27.75,0,0,0,.69-4.74c.06-.72.12-1.44.21-2.16a22.31,22.31,0,0,0-5.73-17.57,30.64,30.64,0,0,0-22.67-9.87c-5,0-12.2,1.06-16.39,3.4-9.7,5.42-11.89,16.08-12,24.08a26,26,0,0,0,7.34,19.16c5.27,5.36,12.75,8.31,21.06,8.31a29,29,0,0,0,15.88-4.7l.29.45a29.44,29.44,0,0,1-16.17,4.78"/><path class="cls-5" d="M385.15,180.6a1.19,1.19,0,0,1-.71-.22.49.49,0,0,1-.1-.86,7,7,0,0,0,1-1.18,2,2,0,0,0,.27-1,.81.81,0,0,0-.36-.63,3.76,3.76,0,0,1-1-1,2.38,2.38,0,0,1-.28-1.19,2.45,2.45,0,0,1,.69-1.78,2.26,2.26,0,0,1,1.72-.72,2.31,2.31,0,0,1,1.89.91,2.89,2.89,0,0,1,.66,1.9,7.33,7.33,0,0,1-2.54,5.15,1.86,1.86,0,0,1-1.24.63m-5.78,0a1.16,1.16,0,0,1-.7-.22.49.49,0,0,1-.09-.86,6.66,6.66,0,0,0,1-1.18,1.87,1.87,0,0,0,.28-1,.81.81,0,0,0-.36-.63,3.76,3.76,0,0,1-1-1,2.38,2.38,0,0,1-.29-1.19,2.45,2.45,0,0,1,.69-1.78,2.28,2.28,0,0,1,1.72-.72,2.33,2.33,0,0,1,1.9.91,2.94,2.94,0,0,1,.65,1.9,7.29,7.29,0,0,1-2.54,5.15,1.84,1.84,0,0,1-1.24.63"/><text class="cls-9" transform="translate(342.76 160.41) scale(1.19 1)">Suivi CFO</text><text class="cls-9" transform="translate(351.98 170.91) scale(1.19 1)">CFA</text><path class="cls-5" d="M381.79,228A23.78,23.78,0,1,1,358,204.21,23.78,23.78,0,0,1,381.79,228"/><path class="cls-5" d="M359.47,256.53a27,27,0,1,1,26.23-20.32l-.52-.13a26.54,26.54,0,1,0-10.87,15.38l.3.44a26.91,26.91,0,0,1-15.14,4.63"/><path class="cls-5" d="M357.62,256.53c-8.46,0-16.07-3-21.45-8.47a26.58,26.58,0,0,1-7.49-19.55c.13-8.13,2.36-19,12.29-24.54,4.27-2.38,11.62-3.47,16.65-3.47a31.18,31.18,0,0,1,23.07,10.05,22.83,22.83,0,0,1,5.86,18c-.08.72-.15,1.43-.21,2.14a27.16,27.16,0,0,1-.7,4.83l-.52-.14a27.61,27.61,0,0,0,.69-4.74c.06-.71.12-1.43.21-2.16a22.31,22.31,0,0,0-5.73-17.57A30.64,30.64,0,0,0,357.62,201c-5,0-12.2,1.06-16.39,3.4-9.7,5.42-11.89,16.09-12,24.08a26.06,26.06,0,0,0,7.34,19.17c5.27,5.35,12.75,8.3,21.06,8.3a29,29,0,0,0,15.88-4.69l.29.45a29.52,29.52,0,0,1-16.17,4.78"/><path class="cls-5" d="M385.15,249.73a1.19,1.19,0,0,1-.71-.22.6.6,0,0,1-.31-.47.63.63,0,0,1,.21-.39,6.58,6.58,0,0,0,1-1.18,1.92,1.92,0,0,0,.27-1,.78.78,0,0,0-.36-.63,3.92,3.92,0,0,1-1-1,2.35,2.35,0,0,1-.28-1.19,2.47,2.47,0,0,1,.69-1.78,2.26,2.26,0,0,1,1.72-.71,2.33,2.33,0,0,1,1.89.9,2.92,2.92,0,0,1,.66,1.91,7.32,7.32,0,0,1-2.54,5.14,1.86,1.86,0,0,1-1.24.63m-5.78,0a1.16,1.16,0,0,1-.7-.22.58.58,0,0,1-.31-.47.6.6,0,0,1,.22-.39,6.32,6.32,0,0,0,1-1.18,1.83,1.83,0,0,0,.28-1,.78.78,0,0,0-.36-.63,3.92,3.92,0,0,1-1-1,2.36,2.36,0,0,1-.29-1.19,2.47,2.47,0,0,1,.69-1.78,2.27,2.27,0,0,1,1.72-.71,2.35,2.35,0,0,1,1.9.9,3,3,0,0,1,.65,1.91,7.28,7.28,0,0,1-2.54,5.14,1.84,1.84,0,0,1-1.24.63"/><path class="cls-5" d="M381.79,294.26A23.78,23.78,0,1,1,358,270.48a23.77,23.77,0,0,1,23.78,23.78"/><path class="cls-5" d="M359.47,322.8a27,27,0,1,1,26.23-20.32l-.52-.14a26.31,26.31,0,0,0,.84-6.63,26.56,26.56,0,1,0-11.71,22l.3.45a26.91,26.91,0,0,1-15.14,4.63"/><path class="cls-5" d="M357.62,322.8c-8.46,0-16.07-3-21.45-8.47a26.58,26.58,0,0,1-7.49-19.55c.13-8.13,2.36-19,12.29-24.54,4.27-2.38,11.62-3.47,16.65-3.47a31.18,31.18,0,0,1,23.07,10.05,22.83,22.83,0,0,1,5.86,18c-.08.71-.15,1.43-.21,2.14a27.16,27.16,0,0,1-.7,4.83l-.52-.14a27.61,27.61,0,0,0,.69-4.74c.06-.71.12-1.43.21-2.16a22.31,22.31,0,0,0-5.73-17.57,30.64,30.64,0,0,0-22.67-9.87c-5,0-12.2,1.06-16.39,3.4-9.7,5.42-11.89,16.09-12,24.08A26,26,0,0,0,336.56,314c5.27,5.36,12.75,8.31,21.06,8.31a29,29,0,0,0,15.88-4.7l.29.45a29.45,29.45,0,0,1-16.17,4.79"/><path class="cls-5" d="M385.15,316a1.19,1.19,0,0,1-.71-.22.49.49,0,0,1-.1-.86,6.58,6.58,0,0,0,1-1.18,2,2,0,0,0,.27-1,.81.81,0,0,0-.36-.63,3.76,3.76,0,0,1-1-1,2.38,2.38,0,0,1-.28-1.19,2.45,2.45,0,0,1,.69-1.78,2.26,2.26,0,0,1,1.72-.72,2.34,2.34,0,0,1,1.89.91,2.92,2.92,0,0,1,.66,1.91,7.32,7.32,0,0,1-2.54,5.14,1.86,1.86,0,0,1-1.24.63m-5.78,0a1.16,1.16,0,0,1-.7-.22.49.49,0,0,1-.09-.86,6.32,6.32,0,0,0,1-1.18,1.87,1.87,0,0,0,.28-1,.81.81,0,0,0-.36-.63,3.76,3.76,0,0,1-1-1,2.38,2.38,0,0,1-.29-1.19,2.45,2.45,0,0,1,.69-1.78,2.28,2.28,0,0,1,1.72-.72,2.36,2.36,0,0,1,1.9.91,3,3,0,0,1,.65,1.91,7.28,7.28,0,0,1-2.54,5.14,1.84,1.84,0,0,1-1.24.63"/><path class="cls-3" d="M330.13,98.44a30.89,30.89,0,1,1-30.88-30.89,30.89,30.89,0,0,1,30.88,30.89"/><path class="cls-3" d="M301.13,135.5a35.11,35.11,0,1,1,34.08-26.39l-.68-.17a34.47,34.47,0,1,0-14.12,20l.39.57a35,35,0,0,1-19.67,6"/><path class="cls-3" d="M298.73,135.5c-11,0-20.87-3.9-27.85-11-6.52-6.63-9.88-15.41-9.73-25.39.17-10.57,3.07-24.67,16-31.87,5.54-3.1,15.09-4.51,21.61-4.51a40.45,40.45,0,0,1,30,13.06,29.61,29.61,0,0,1,7.62,23.36c-.11.94-.19,1.86-.27,2.79a36.72,36.72,0,0,1-.91,6.27l-.67-.18a35.87,35.87,0,0,0,.88-6.15c.08-.93.17-1.87.28-2.81a29,29,0,0,0-7.45-22.82,39.74,39.74,0,0,0-29.44-12.82c-6.43,0-15.84,1.38-21.27,4.42-12.61,7-15.45,20.89-15.61,31.27-.15,9.79,3.14,18.4,9.53,24.89,6.85,7,16.56,10.78,27.35,10.78a37.55,37.55,0,0,0,20.63-6.09l.38.58a38.21,38.21,0,0,1-21,6.21"/><path class="cls-3" d="M334.48,126.68a1.56,1.56,0,0,1-.91-.29.63.63,0,0,1-.13-1.11,8.72,8.72,0,0,0,1.28-1.54,2.46,2.46,0,0,0,.36-1.25,1,1,0,0,0-.47-.82,5,5,0,0,1-1.29-1.36,3.13,3.13,0,0,1-.36-1.54,3.19,3.19,0,0,1,.89-2.32,3,3,0,0,1,2.23-.92,3.06,3.06,0,0,1,2.47,1.17,3.84,3.84,0,0,1,.85,2.48q0,3.41-3.3,6.68a2.43,2.43,0,0,1-1.62.82m-7.49,0a1.57,1.57,0,0,1-.92-.29.76.76,0,0,1-.4-.62.74.74,0,0,1,.28-.49,8.58,8.58,0,0,0,1.27-1.54,2.46,2.46,0,0,0,.36-1.25,1,1,0,0,0-.47-.82,5,5,0,0,1-1.29-1.36,3.13,3.13,0,0,1-.36-1.54,3.19,3.19,0,0,1,.89-2.32,3,3,0,0,1,2.23-.92,3.07,3.07,0,0,1,2.47,1.17,3.84,3.84,0,0,1,.85,2.48q0,3.41-3.3,6.68a2.43,2.43,0,0,1-1.61.82"/><text class="cls-4" transform="translate(282.62 96.1) scale(1.42 1)">Cellule</text><text class="cls-4" transform="translate(287.34 110.1) scale(1.42 1)">Suivi</text><path class="cls-10" d="M110,57.12c-.12-.13-.18-.32-.34-.42s-.56,0-.64.35l-.11,0c-.29,1.14.28,2.34.63,3.42.42,1.33.9,2.64,1.39,4a1.14,1.14,0,0,0,2.06.27,58,58,0,0,1,3.31-5.39.82.82,0,0,0,.11-.75l.11-.2v0h0a.94.94,0,0,0,0-.47l-.06-.14a.76.76,0,0,0-.2-.32.67.67,0,0,0-.32-.2.78.78,0,0,0-.37-.09l-.26,0a.84.84,0,0,0-.34.17.68.68,0,0,0-.25.28l0,.05-.17.16a.76.76,0,0,0-.17.32v.06a6,6,0,0,0-.81.62,31.79,31.79,0,0,1,1.73-5.65,26.27,26.27,0,0,1,6-8.62A27,27,0,0,1,141,37.25c.41,0,.39-.58,0-.63A26.18,26.18,0,0,0,119.75,43a25.47,25.47,0,0,0-8.19,15.36A4.35,4.35,0,0,0,110,57.12"/><path class="cls-10" d="M276.22,57.12c.12-.13.19-.32.34-.42.31-.22.56,0,.64.35l.11,0c.29,1.14-.28,2.34-.62,3.42-.43,1.33-.91,2.64-1.39,4a1.15,1.15,0,0,1-2.07.27,56,56,0,0,0-3.31-5.39.85.85,0,0,1-.11-.75l-.11-.2v0h0a.84.84,0,0,1,0-.47l.06-.14a.76.76,0,0,1,.2-.32.72.72,0,0,1,.32-.2.82.82,0,0,1,.38-.09l.26,0a.8.8,0,0,1,.33.17.68.68,0,0,1,.25.28l0,.05.17.16a.67.67,0,0,1,.17.32v.06a6,6,0,0,1,.81.62,31.79,31.79,0,0,0-1.73-5.65,26.24,26.24,0,0,0-6-8.62,27,27,0,0,0-19.78-7.24c-.41,0-.39-.58,0-.63A26.18,26.18,0,0,1,266.44,43a25.49,25.49,0,0,1,8.2,15.36,4.24,4.24,0,0,1,1.58-1.27"/><path class="cls-10" d="M362.5,122.29c.09-.09.13-.22.23-.29s.37,0,.43.24l.07,0a4.25,4.25,0,0,1-.42,2.28c-.28.89-.6,1.77-.93,2.64a.76.76,0,0,1-1.38.18,39,39,0,0,0-2.21-3.6.54.54,0,0,1-.07-.5l-.08-.13h0a.54.54,0,0,1,0-.31l0-.1.14-.21.21-.14.25,0,.18,0,.22.12.17.18v0l.12.11.11.21v0a4,4,0,0,1,.54.41A21.72,21.72,0,0,0,359,119.6a17.53,17.53,0,0,0-4-5.76A18.06,18.06,0,0,0,341.75,109c-.27,0-.26-.38,0-.42A17.53,17.53,0,0,1,356,112.86a17.08,17.08,0,0,1,5.48,10.27,2.9,2.9,0,0,1,1.06-.84"/><path class="cls-10" d="M25.87,122.29c-.08-.09-.12-.22-.23-.29s-.37,0-.43.24l-.07,0a4.34,4.34,0,0,0,.42,2.28c.28.89.6,1.77.93,2.64a.76.76,0,0,0,1.38.18,39,39,0,0,1,2.21-3.6.54.54,0,0,0,.08-.5l.07-.13h0a.65.65,0,0,0,0-.31l0-.1-.14-.21-.21-.14a.43.43,0,0,0-.25,0l-.18,0-.22.12-.17.18v0l-.11.11-.12.21v0a3.42,3.42,0,0,0-.53.41,20.86,20.86,0,0,1,1.15-3.78,17.53,17.53,0,0,1,4-5.76A18.08,18.08,0,0,1,46.62,109c.27,0,.26-.38,0-.42a17.53,17.53,0,0,0-14.21,4.29,17.08,17.08,0,0,0-5.48,10.27,2.83,2.83,0,0,0-1.06-.84"/><text class="cls-11" transform="translate(340.12 229.25) scale(1.21 1)">Suivi HVAC</text><text class="cls-11" transform="translate(351.98 239.56) scale(1.21 1)">DES</text><path class="cls-12" d="M295.29,233.05a23.78,23.78,0,1,1-23.78-23.78,23.77,23.77,0,0,1,23.78,23.78"/><path class="cls-12" d="M273,261.59a27,27,0,1,1,26.23-20.31l-.52-.14a26.57,26.57,0,1,0-10.87,15.38l.3.45A27,27,0,0,1,273,261.59"/><path class="cls-12" d="M271.12,261.59c-8.46,0-16.07-3-21.45-8.46a26.58,26.58,0,0,1-7.49-19.55c.13-8.14,2.36-19,12.29-24.54,4.27-2.38,11.62-3.47,16.65-3.47a31.18,31.18,0,0,1,23.07,10.05,22.8,22.8,0,0,1,5.86,18c-.08.72-.15,1.44-.21,2.15a27,27,0,0,1-.7,4.82l-.52-.13a27.75,27.75,0,0,0,.69-4.74c.06-.72.12-1.43.21-2.16A22.31,22.31,0,0,0,293.79,216a30.64,30.64,0,0,0-22.67-9.87c-5,0-12.2,1.06-16.39,3.4-9.7,5.42-11.89,16.08-12,24.08a26,26,0,0,0,7.34,19.16c5.27,5.36,12.75,8.31,21.06,8.31a29,29,0,0,0,15.88-4.7l.29.45a29.44,29.44,0,0,1-16.17,4.78"/><path class="cls-12" d="M298.65,254.8a1.19,1.19,0,0,1-.71-.22.49.49,0,0,1-.1-.86,7,7,0,0,0,1-1.18,2,2,0,0,0,.27-1,.81.81,0,0,0-.36-.63,3.76,3.76,0,0,1-1-1,2.38,2.38,0,0,1-.28-1.19,2.45,2.45,0,0,1,.69-1.78,2.26,2.26,0,0,1,1.72-.72,2.31,2.31,0,0,1,1.89.91,2.89,2.89,0,0,1,.66,1.9,7.33,7.33,0,0,1-2.54,5.15,1.86,1.86,0,0,1-1.24.63m-5.78,0a1.16,1.16,0,0,1-.7-.22.49.49,0,0,1-.09-.86,6.66,6.66,0,0,0,1-1.18,1.87,1.87,0,0,0,.28-1,.81.81,0,0,0-.36-.63,3.76,3.76,0,0,1-1-1,2.38,2.38,0,0,1-.29-1.19,2.45,2.45,0,0,1,.69-1.78,2.28,2.28,0,0,1,1.72-.72,2.33,2.33,0,0,1,1.9.91,2.94,2.94,0,0,1,.65,1.9,7.29,7.29,0,0,1-2.54,5.15,1.84,1.84,0,0,1-1.24.63"/><text class="cls-13" transform="translate(249.52 232.62) scale(1.15 1)">Résponsable</text><text class="cls-13" transform="translate(257.04 242.69) scale(1.15 1)">Travaux</text><path class="cls-12" d="M295.29,298.41a23.78,23.78,0,1,1-23.78-23.78,23.78,23.78,0,0,1,23.78,23.78"/><path class="cls-12" d="M273,327a27,27,0,1,1,26.23-20.32l-.52-.13a26.54,26.54,0,1,0-10.87,15.38l.3.45A27,27,0,0,1,273,327"/><path class="cls-12" d="M271.12,327c-8.46,0-16.07-3-21.45-8.46a26.6,26.6,0,0,1-7.49-19.56c.13-8.13,2.36-19,12.29-24.53,4.27-2.39,11.62-3.47,16.65-3.47A31.14,31.14,0,0,1,294.19,281a22.8,22.8,0,0,1,5.86,18c-.08.72-.15,1.43-.21,2.14a27,27,0,0,1-.7,4.83l-.52-.14a27.64,27.64,0,0,0,.69-4.73c.06-.72.12-1.44.21-2.16a22.29,22.29,0,0,0-5.73-17.57,30.61,30.61,0,0,0-22.67-9.87c-5,0-12.2,1.06-16.39,3.4-9.7,5.42-11.89,16.08-12,24.07a26,26,0,0,0,7.34,19.17c5.27,5.36,12.75,8.3,21.06,8.3A29,29,0,0,0,287,321.72l.29.45A29.44,29.44,0,0,1,271.12,327"/><path class="cls-12" d="M298.65,320.16a1.27,1.27,0,0,1-.71-.22.63.63,0,0,1-.31-.48.59.59,0,0,1,.21-.38,7,7,0,0,0,1-1.18,2,2,0,0,0,.27-1,.81.81,0,0,0-.36-.63,3.65,3.65,0,0,1-1-1.05,2.34,2.34,0,0,1-.28-1.18,2.48,2.48,0,0,1,.69-1.79,2.29,2.29,0,0,1,1.72-.71,2.33,2.33,0,0,1,1.89.9,2.94,2.94,0,0,1,.66,1.91,7.31,7.31,0,0,1-2.54,5.14,1.83,1.83,0,0,1-1.24.64m-5.78,0a1.24,1.24,0,0,1-.7-.22.61.61,0,0,1-.31-.48.57.57,0,0,1,.22-.38,6.66,6.66,0,0,0,1-1.18,1.87,1.87,0,0,0,.28-1,.81.81,0,0,0-.36-.63,3.65,3.65,0,0,1-1-1.05,2.34,2.34,0,0,1-.29-1.18,2.48,2.48,0,0,1,.69-1.79,2.31,2.31,0,0,1,1.72-.71,2.35,2.35,0,0,1,1.9.9,3,3,0,0,1,.65,1.91,7.27,7.27,0,0,1-2.54,5.14,1.81,1.81,0,0,1-1.24.64"/><text class="cls-6" transform="translate(262.7 292.77) scale(1.32 1)">Main</text><text class="cls-6" transform="translate(255.38 300.71) scale(1.32 1)">d’oeuvre</text><text class="cls-6" transform="translate(259.35 308.64) scale(1.32 1)">qualité</text><path class="cls-12" d="M146.08,231.93a23.78,23.78,0,1,1-23.78-23.78,23.78,23.78,0,0,1,23.78,23.78"/><path class="cls-12" d="M123.76,260.47A27.09,27.09,0,1,1,150,240.15l-.52-.13A26.54,26.54,0,1,0,138.6,255.4l.3.44a26.91,26.91,0,0,1-15.14,4.63"/><path class="cls-12" d="M121.91,260.47c-8.46,0-16.07-3-21.45-8.46A26.62,26.62,0,0,1,93,232.45c.13-8.13,2.36-19,12.29-24.54,4.27-2.38,11.62-3.46,16.65-3.46A31.14,31.14,0,0,1,145,214.5a22.8,22.8,0,0,1,5.86,18c-.08.72-.14,1.43-.21,2.14a27.16,27.16,0,0,1-.7,4.83l-.52-.14a27.61,27.61,0,0,0,.69-4.74c.06-.71.12-1.43.21-2.15a22.33,22.33,0,0,0-5.73-17.58A30.63,30.63,0,0,0,121.91,205c-5,0-12.2,1.07-16.39,3.4-9.7,5.42-11.89,16.09-12,24.08a26.06,26.06,0,0,0,7.34,19.17c5.27,5.35,12.75,8.3,21.06,8.3a29,29,0,0,0,15.88-4.69l.29.45a29.42,29.42,0,0,1-16.17,4.78"/><path class="cls-12" d="M149.44,253.67a1.26,1.26,0,0,1-.71-.21.63.63,0,0,1-.31-.48.59.59,0,0,1,.21-.38,6.94,6.94,0,0,0,1-1.19,1.89,1.89,0,0,0,.27-1,.82.82,0,0,0-.35-.63,3.69,3.69,0,0,1-1-1,2.35,2.35,0,0,1-.28-1.19,2.47,2.47,0,0,1,.69-1.78,2.29,2.29,0,0,1,1.72-.71,2.33,2.33,0,0,1,1.89.9,2.94,2.94,0,0,1,.66,1.91,7.32,7.32,0,0,1-2.54,5.14,1.78,1.78,0,0,1-1.24.63m-5.78,0a1.23,1.23,0,0,1-.7-.21.61.61,0,0,1-.31-.48.57.57,0,0,1,.22-.38,6.65,6.65,0,0,0,1-1.19,1.81,1.81,0,0,0,.28-1,.81.81,0,0,0-.36-.63,3.78,3.78,0,0,1-1-1,2.35,2.35,0,0,1-.28-1.19,2.46,2.46,0,0,1,.68-1.78,2.31,2.31,0,0,1,1.72-.71,2.35,2.35,0,0,1,1.9.9,2.93,2.93,0,0,1,.65,1.91A7.28,7.28,0,0,1,144.9,253a1.76,1.76,0,0,1-1.24.63"/><text class="cls-6" transform="translate(110.6 235.52) scale(1.32 1)">Etudes</text><path class="cls-12" d="M146.08,297.88A23.78,23.78,0,1,1,122.3,274.1a23.77,23.77,0,0,1,23.78,23.78"/><path class="cls-12" d="M123.76,326.42A27.08,27.08,0,1,1,150,306.11l-.52-.14a26.57,26.57,0,1,0-10.87,15.38l.3.45a27,27,0,0,1-15.14,4.62"/><path class="cls-12" d="M121.91,326.42c-8.46,0-16.07-3-21.45-8.46A26.58,26.58,0,0,1,93,298.41c.13-8.14,2.36-19,12.29-24.54,4.27-2.38,11.62-3.47,16.65-3.47A31.18,31.18,0,0,1,145,280.45a22.8,22.8,0,0,1,5.86,18c-.08.72-.14,1.44-.21,2.15a27,27,0,0,1-.7,4.82l-.52-.13a27.9,27.9,0,0,0,.69-4.74c.06-.72.12-1.44.21-2.16a22.29,22.29,0,0,0-5.73-17.57,30.63,30.63,0,0,0-22.67-9.87c-5,0-12.2,1.06-16.39,3.4-9.7,5.42-11.89,16.08-12,24.08a26,26,0,0,0,7.34,19.16c5.27,5.36,12.75,8.31,21.06,8.31a29,29,0,0,0,15.88-4.7l.29.45a29.42,29.42,0,0,1-16.17,4.78"/><path class="cls-12" d="M149.44,319.63a1.19,1.19,0,0,1-.71-.22.6.6,0,0,1-.31-.48.59.59,0,0,1,.21-.38,7,7,0,0,0,1-1.18,2,2,0,0,0,.27-1,.82.82,0,0,0-.35-.63,3.67,3.67,0,0,1-1-1,2.41,2.41,0,0,1-.28-1.19,2.45,2.45,0,0,1,.69-1.78,2.26,2.26,0,0,1,1.72-.72,2.31,2.31,0,0,1,1.89.91,2.89,2.89,0,0,1,.66,1.9,7.34,7.34,0,0,1-2.54,5.15,1.86,1.86,0,0,1-1.24.63m-5.78,0a1.16,1.16,0,0,1-.7-.22.58.58,0,0,1-.31-.48.57.57,0,0,1,.22-.38,6.66,6.66,0,0,0,1-1.18,1.87,1.87,0,0,0,.28-1,.81.81,0,0,0-.36-.63,3.76,3.76,0,0,1-1-1,2.41,2.41,0,0,1-.28-1.19,2.44,2.44,0,0,1,.68-1.78,2.28,2.28,0,0,1,1.72-.72,2.33,2.33,0,0,1,1.9.91,2.88,2.88,0,0,1,.65,1.9A7.3,7.3,0,0,1,144.9,319a1.84,1.84,0,0,1-1.24.63"/><text class="cls-6" transform="translate(111.06 301.48) scale(1.32 1)">Métré</text><text class="cls-6" transform="translate(341.1 290.25) scale(1.32 1)">Suivi PLB</text><text class="cls-6" transform="translate(352.29 298.19) scale(1.32 1)">RIA</text><text class="cls-6" transform="translate(351.31 306.13) scale(1.32 1)">SPR</text><path class="cls-14" d="M271.14,196.8a15.6,15.6,0,0,1,.5,4.1,15.22,15.22,0,0,1-.5,4.11,14.83,14.83,0,0,1-.5-4.11,15.19,15.19,0,0,1,.5-4.1"/><path class="cls-14" d="M196.07,91.29a15.22,15.22,0,0,1,.5,4.11,14.76,14.76,0,0,1-.5,4.1,17.1,17.1,0,0,1,0-8.21"/><path class="cls-14" d="M271.14,262.16a15.5,15.5,0,0,1,.5,4.1,15.1,15.1,0,0,1-.5,4.1,14.72,14.72,0,0,1-.5-4.1,15.1,15.1,0,0,1,.5-4.1"/><path class="cls-14" d="M360.53,190.8a17.1,17.1,0,0,1,0,8.21,17.44,17.44,0,0,1,0-8.21"/><path class="cls-14" d="M29,189.85a17.06,17.06,0,0,1,0,8.2,17.06,17.06,0,0,1,0-8.2"/><path class="cls-14" d="M360.53,258.16a17.1,17.1,0,0,1,0,8.21,17.44,17.44,0,0,1,0-8.21"/><path class="cls-14" d="M123.76,196.8a17.1,17.1,0,0,1,0,8.21,14.83,14.83,0,0,1-.5-4.11,15.19,15.19,0,0,1,.5-4.1"/><path class="cls-14" d="M123.76,262.16a17.06,17.06,0,0,1,0,8.2,14.72,14.72,0,0,1-.5-4.1,15.1,15.1,0,0,1,.5-4.1"/><path class="cls-14" d="M127.93,99.78c10.86-.21,21.72-.3,32.58-.38l32.59-.12,32.58.12,16.29.14,16.29.24L242,100l-16.29.14-32.58.11-32.59-.12c-10.86-.08-21.72-.17-32.58-.38"/><path class="cls-14" d="M154,167.67a29.14,29.14,0,0,1,10.75,0,25,25,0,0,1-5.37.5,25.73,25.73,0,0,1-5.38-.5"/><path class="cls-14" d="M227.11,167.67a29.14,29.14,0,0,1,10.75,0,25.19,25.19,0,0,1-5.38.5,25.7,25.7,0,0,1-5.37-.5"/><path class="cls-14" d="M153.22,111.7c-1.07,2.17-2.23,4.27-3.41,6.37s-2.4,4.17-3.64,6.23-2.51,4.1-3.84,6.11l-2,3c-.69,1-1.35,2-2.08,3,.53-1.09,1.11-2.14,1.66-3.22l1.75-3.15c1.17-2.11,2.41-4.17,3.64-6.23s2.52-4.11,3.84-6.11,2.65-4,4.07-6"/><path class="cls-14" d="M238.4,111.7c1.42,2,2.75,4,4.07,6s2.58,4.06,3.84,6.11,2.47,4.12,3.64,6.23l1.75,3.15c.55,1.08,1.13,2.13,1.66,3.22-.72-1-1.39-2-2.08-3l-2-3c-1.33-2-2.58-4.06-3.84-6.11s-2.47-4.12-3.64-6.23-2.34-4.2-3.41-6.37"/><path class="cls-14" d="M195.79,107.7c.25,2.4.4,4.8.52,7.2s.2,4.81.26,7.21.07,4.81,0,7.22l-.07,3.61c-.06,1.2-.09,2.4-.18,3.61-.14-1.2-.21-2.4-.31-3.6l-.21-3.61c-.14-2.4-.2-4.8-.26-7.21s-.07-4.81,0-7.21.08-4.82.24-7.22"/></g></g></svg>