<svg id="Layer_1" data-name="Layer 1" xmlns="http://www.w3.org/2000/svg" xmlns:xlink="http://www.w3.org/1999/xlink" viewBox="0 0 975.11 318.36"><defs><style>.cls-1{fill:none;}.cls-2{clip-path:url(#clip-path);}.cls-3{fill:#fff;}.cls-4{fill:#2d2e5f;}</style><clipPath id="clip-path"><path class="cls-1" d="M23.15,159.29c0,75.1,207.2,136,462.8,136s462.8-60.9,462.8-136-207.2-136-462.8-136-462.8,60.9-462.8,136"/></clipPath></defs><g class="cls-2"><path class="cls-3" d="M950.15,133.39a172.32,172.32,0,0,0-49.9-39.1c-37.8-19.9-78.1-33.2-119.6-42.2-36.6-8-73.6-14.3-110.7-20-23.2-3.6-46.9-4.8-70.3-7.3-3.4-.4-6.7-2-10.1-3.1h360.6Z"/><path class="cls-3" d="M379.45,21.79c-1.8,1-3.5,2.7-5.4,2.8-57.2,4.1-114,11.5-170,24-45.3,10.1-89.8,22.9-131.3,44.3-16.8,8.7-32.8,18.5-46,32.3-1.2,1.2-3.2,1.5-4.9,2.2V21.69Q200.65,21.84,379.45,21.79Z"/><path class="cls-3" d="M604.45,297.19c1.8-1,3.5-2.7,5.3-2.8,57-4,113.5-11.6,169.2-24.3,46.8-10.7,92.7-24,134.1-49.2,14.5-8.9,27.4-19.6,37.1-33.8v110.1Z"/><path class="cls-3" d="M21.85,191.49c35.1,38.1,81.8,54.5,129.6,68.3,68.4,19.7,138.6,29.4,209.5,34.7,2.7.2,5.4,1.8,8,2.7H21.75Q21.9,244.24,21.85,191.49Z"/><path class="cls-3" d="M462.05,287c-67.5-.3-155.7-6.7-242.7-25.6-42.8-9.3-84.7-21.4-123.3-42.9-14-7.8-26.9-16.9-37-29.5q-24.75-30.75.9-60.6c12.9-14.9,29.5-24.9,46.9-33.6,40.3-20.1,83.3-32.2,127.1-41.2,125.2-25.7,251.7-29.3,378.7-18.2,67.4,5.9,133.9,16.9,198.4,38.2,31,10.2,61.2,22.3,86.9,43,33.4,26.8,33.6,57,.8,84.4-23.4,19.6-51.1,31.2-79.6,41-54.5,18.7-110.9,28.7-167.9,35.5C595.55,284.29,539.55,287.09,462.05,287Zm21.2-3.3c80.6-.2,160.7-5.6,239.9-21,44.9-8.8,89.1-20.3,130.3-40.9,17.6-8.8,34.2-19.3,46.5-35.2,14.7-18.9,14.2-38.7-1.3-56.9-11.5-13.5-26.1-22.8-41.6-30.8-50.7-26-105.5-38.8-161.1-48.6-62.7-11-126-15.9-189.7-16.7-95.1-1.1-189.5,5.4-282.4,26.9-38.8,9-77,19.9-112,39.4a180.56,180.56,0,0,0-38.6,28.6c-18.4,18.1-18.2,40.1-1.7,60.1,10.9,13.3,24.9,22.7,39.9,30.6,36.1,19.1,74.8,30.4,114.4,39.1C310.65,277,396.65,283.29,483.25,283.69Z"/><path class="cls-3" d="M383.15,103.19c-2.1,2.7-4.1,5.4-6.3,8-25.9,30.7-51.6,61.5-77.8,92-2.2,2.6-6.4,4.2-9.9,4.6-6.4.7-12.9-.1-19.3.3-5.2.4-6.9-2-7.8-6.6-6-30.6-12.3-61.2-18.4-91.8-1.4-6.9.2-8.8,7.3-9.2,20.7-.9,20.7-.9,24.4,18.9,3.1,16.3,6.1,32.6,9.4,48.9.5,2.5,2.2,5.9,4.3,6.7,1.5.6,5-1.8,6.6-3.7q28.65-33.75,57.1-67.6c1.1-1.3,2.6-2.9,4-3,8.5-.3,17-.1,25.6-.1C382.65,101.49,382.85,102.29,383.15,103.19Z"/><path class="cls-3" d="M444.05,208.69c-11.4-4.2-23.1,4.5-32-7.4-13.7,7.9-28.9,11.2-44.9,5.5-14.6-5.2-18.1-25.5-5.9-35,4.8-3.7,10.4-7.9,16.1-8.8,14.6-2.3,29.4-2.8,44.1-4.4,2.6-.3,7.1-2,7.2-3.4.3-2.7-1.1-7.2-3.2-8.4-8-4.4-17.1-3.9-24,1.2-6.7,5-13.1,4.6-20.2,3.8-3.9-.4-7.8-.7-13.4-1.1,2.7-3.5,4.2-5.9,6.2-7.8,16.7-15.7,56-20.6,76.4-9.6,7.1,3.8,10,11.9,6.8,20.4-2.9,7.6-6.2,15.1-9.5,22.6C443.55,185.89,440.45,195.69,444.05,208.69Zm-22.9-37.8c-11.6,2.5-22.2,4.3-32.6,7.2-2.4.7-3.8,5-5.6,7.7,2.2,1.1,4.2,2.7,6.5,3.3a69.67,69.67,0,0,0,10.2,1.5C410.25,191.89,419.55,184.09,421.15,170.89Z"/><path class="cls-3" d="M570.55,176.19c-.5,6.8,1.1,10.6,7.4,11.7s12.4,3.8,18.6,3.8c4.7,0,10.5-1.8,13.7-4.9,4.3-4.3,8.2-5.9,13.7-4.1,4.5,1.5,8.9,3.2,13.3,4.8-3.4,3.8-6.2,8.3-10.2,11.3-17.4,12.9-51.1,14-69.4,2.7-13-8.1-18-23.8-12.5-38.4,6.3-16.8,20.2-25.8,35.7-31.5,14.8-5.4,30.6-5.2,46.1-.7,20,5.8,21.5,28.9,16.9,42.4-.5,1.5-4.3,2.8-6.6,2.8-19.1.2-38.2.1-57.3.1Zm48.2-14.7c1.6-8.5-1.2-13.6-9.7-15.3-11.2-2.3-21.8-.9-30,8.1-1.8,2-3,4.4-4.9,7.2Z"/><path class="cls-3" d="M765,155c-8.5.6-15.9,1.3-23.3,1.5a6.1,6.1,0,0,1-4.6-2.5c-4.1-7.6-11-8.8-18.5-8.2-15,1.3-28.8,13.8-31.3,28.7-1.1,6.2,0,11.4,7.5,12.8,6,1.2,12.1,4.1,18,3.6,4.2-.3,9-4.1,11.7-7.8,3.9-5.2,7.9-6.7,13.9-5.4a102,102,0,0,0,11.1,1.4c6.1.7,6.4,3.4,3,7.8-11.3,14.5-26.7,21.4-44.5,22.2-9.2.4-19.1-.5-27.6-3.8-21.9-8.5-28.6-34.5-13.2-52.2,21.2-24.4,53.8-33.4,84.9-19.8C761.55,137.59,763.05,145.49,765,155Z"/><path class="cls-3" d="M544.65,129.69c-.8,3.1-1.3,4.5-1.6,5.9-1.4,8.5-6,12.4-14.8,10.7-5.6-1.1-8.4,1.5-10.1,6.9-3,9.4-6.8,18.6-10.1,27.9-.9,2.5-1.4,5-2.2,8,6.7.6,12.4,1.2,19.1,1.9-1.7,5.4-2.8,9.9-4.5,14.2-.6,1.5-2.8,3.3-4.2,3.3-8.8.2-18,1.2-26.5-.5-11.9-2.4-16-11.9-11.8-23.3,4.5-12.2,9.1-24.5,14-37.4-4.9-.3-9-.6-13.1-.9,1.9-17.6,5.8-19.7,17.7-15.1.4-.3,1.1-.5,1.1-.9,1.9-10.3,9.7-13.9,18.4-16.9,6.2-2.1,12.1-5.2,20.6-8.9-3.4,9.2-6.1,16.6-9.2,25C533.25,129.69,538.45,129.69,544.65,129.69Z"/><path class="cls-4" d="M900.15,94.39c-37.8-19.9-78.1-33.2-119.6-42.2-36.6-8-73.6-14.3-110.7-20-23.2-3.6-46.9-4.8-70.3-7.3-3.4-.4-6.7-2-10.1-3.1H379.35c-1.8,1-3.5,2.7-5.4,2.8-57.2,4.1-114,11.5-170,24-45.3,10.1-89.8,22.9-131.3,44.3-16.8,8.7-32.8,18.5-46,32.3-1.2,1.2-3.2,1.5-4.9,2.2v64c35.1,38.1,81.8,54.5,129.6,68.3,68.4,19.7,138.6,29.4,209.5,34.7,2.7.2,5.4,1.8,8,2.7h235.4c1.8-1,3.5-2.7,5.3-2.8,57-4,113.5-11.6,169.2-24.3,46.8-10.7,92.7-24,134.1-49.2,14.5-8.9,27.4-19.6,37.1-33.8v-53.6A167.68,167.68,0,0,0,900.15,94.39Zm-1.4,106.7c-23.4,19.6-51.1,31.2-79.6,41-54.5,18.7-110.9,28.7-167.9,35.5-55.7,6.7-111.7,9.5-189.2,9.4-67.5-.3-155.7-6.7-242.7-25.6-42.8-9.3-84.7-21.4-123.3-42.9-14-7.8-26.9-16.9-37-29.5q-24.75-30.75.9-60.6c12.9-14.9,29.5-24.9,46.9-33.6,40.3-20.1,83.3-32.2,127.1-41.2,125.2-25.7,251.7-29.3,378.7-18.2,67.4,5.9,133.9,16.9,198.4,38.2,31,10.2,61.2,22.3,86.9,43C931.45,143.49,931.65,173.59,898.75,201.09Z"/><path class="cls-4" d="M857.05,99c-50.7-26-105.5-38.8-161.1-48.6-62.7-11-126-15.9-189.7-16.7-95.1-1.1-189.5,5.4-282.4,26.9-38.8,9-77,19.9-112,39.4a180.56,180.56,0,0,0-38.6,28.6c-18.4,18.1-18.2,40.1-1.7,60.1,10.9,13.3,24.9,22.7,39.9,30.6,36.1,19.1,74.8,30.4,114.4,39.1,84.8,18.5,170.8,24.8,257.4,25.3,80.6-.2,160.7-5.6,239.9-21,44.9-8.8,89.1-20.3,130.3-40.9,17.6-8.8,34.2-19.3,46.5-35.2,14.7-18.9,14.2-38.7-1.3-56.9C887.15,116.29,872.55,106.89,857.05,99Zm-567.8,108.8c-6.4.7-12.9-.1-19.3.3-5.2.4-6.9-2-7.8-6.6-6-30.6-12.3-61.2-18.4-91.8-1.4-6.9.2-8.8,7.3-9.2,20.7-.9,20.7-.9,24.4,18.9,3.1,16.3,6.1,32.6,9.4,48.9.5,2.5,2.2,5.9,4.3,6.7,1.5.6,5-1.8,6.6-3.7q28.65-33.75,57.1-67.6c1.1-1.3,2.6-2.9,4-3,8.5-.3,17-.1,25.6-.1a24.13,24.13,0,0,1,.8,2.5c-2.1,2.7-4.1,5.4-6.3,8-25.9,30.7-51.6,61.5-77.8,92C297,205.69,292.65,207.39,289.25,207.79Zm168.1-54.1c-2.9,7.6-6.2,15.1-9.5,22.6-4.3,9.6-7.5,19.4-3.9,32.4-11.4-4.2-23.1,4.5-32-7.4-13.7,7.9-28.9,11.2-44.9,5.5-14.6-5.2-18.1-25.5-5.9-35,4.8-3.7,10.4-7.9,16.1-8.8,14.6-2.3,29.4-2.8,44.1-4.4,2.6-.3,7.1-2,7.2-3.4.3-2.7-1.1-7.2-3.2-8.4-8-4.4-17.1-3.9-24,1.2-6.7,5-13.1,4.6-20.2,3.8-3.9-.4-7.8-.7-13.4-1.1,2.7-3.5,4.2-5.9,6.2-7.8,16.7-15.7,56-20.6,76.4-9.6C457.75,137.19,460.65,145.29,457.35,153.69Zm70.9-7.4c-5.6-1.1-8.4,1.5-10.1,6.9-3,9.4-6.8,18.6-10.1,27.9-.9,2.5-1.4,5-2.2,8,6.7.6,12.4,1.2,19.1,1.9-1.7,5.4-2.8,9.9-4.5,14.2-.6,1.5-2.8,3.3-4.2,3.3-8.8.2-18,1.2-26.5-.5-11.9-2.4-16-11.9-11.8-23.3,4.5-12.2,9.1-24.5,14-37.4-4.9-.3-9-.6-13.1-.9,1.9-17.6,5.8-19.7,17.7-15.1.4-.3,1.1-.5,1.1-.9,1.9-10.3,9.7-13.9,18.4-16.9,6.2-2.1,12.1-5.2,20.6-8.9-3.4,9.2-6.1,16.6-9.2,25h17.4c-.8,3.1-1.3,4.5-1.6,5.9C541.65,144.19,537.05,148,528.25,146.29Zm115.6,27c-.5,1.5-4.3,2.8-6.6,2.8-19.1.2-38.2.1-57.3.1h-9.4c-.5,6.8,1.1,10.6,7.4,11.7s12.4,3.8,18.6,3.8c4.7,0,10.5-1.8,13.7-4.9,4.3-4.3,8.2-5.9,13.7-4.1,4.5,1.5,8.9,3.2,13.3,4.8-3.4,3.8-6.2,8.3-10.2,11.3-17.4,12.9-51.1,14-69.4,2.7-13-8.1-18-23.8-12.5-38.4,6.3-16.8,20.2-25.8,35.7-31.5,14.8-5.4,30.6-5.2,46.1-.7C647,136.69,648.45,159.79,643.85,173.29Zm50.8,14c6,1.2,12.1,4.1,18,3.6,4.2-.3,9-4.1,11.7-7.8,3.9-5.2,7.9-6.7,13.9-5.4a102,102,0,0,0,11.1,1.4c6.1.7,6.4,3.4,3,7.8-11.3,14.5-26.7,21.4-44.5,22.2-9.2.4-19.1-.5-27.6-3.8-21.9-8.5-28.6-34.5-13.2-52.2,21.2-24.4,53.8-33.4,84.9-19.8,9.6,4.2,11.1,12,13,21.6-8.5.6-15.9,1.3-23.3,1.5a6.1,6.1,0,0,1-4.6-2.5c-4.1-7.6-11-8.8-18.5-8.2-15,1.3-28.8,13.8-31.3,28.7C686.05,180.59,687.15,185.79,694.65,187.29Z"/><path class="cls-4" d="M383,185.89c2.2,1.1,4.2,2.7,6.5,3.3a69.67,69.67,0,0,0,10.2,1.5c10.6,1.2,19.9-6.5,21.4-19.7-11.6,2.5-22.2,4.3-32.6,7.2C386.15,178.89,384.85,183.19,383,185.89Z"/><path class="cls-4" d="M609.05,146.19c-11.2-2.3-21.8-.9-30,8.1-1.8,2-3,4.4-4.9,7.2h44.6C620.35,153.09,617.55,147.89,609.05,146.19Z"/></g></svg>